<?xml version="1.0" standalone="no"?>
<!DOCTYPE svg PUBLIC "-//W3C//DTD SVG 1.1//EN" "http://www.w3.org/Graphics/SVG/1.1/DTD/svg11.dtd" >
<svg xmlns="http://www.w3.org/2000/svg">
<metadata>Generated by IcoMoon</metadata>
<defs>
<font id="Bullhorn-Glyphicons" horiz-adv-x="1024">
<font-face units-per-em="1024" ascent="960" descent="-64" />
<missing-glyph horiz-adv-x="1024" />
<glyph unicode="&#x20;" d="" horiz-adv-x="512" />
<glyph unicode="&#xe600;" d="M240.64 390.997c-3.115-6.315-11.435-11.435-18.475-11.435h-200.832c-11.776 0-21.333 9.557-21.333 21.333v94.208c0 11.776 9.557 21.333 21.333 21.333h129.024l213.717 427.563c11.051 22.059 27.008 21.205 35.712-1.877l258.005-688.128 125.568 251.008c3.115 6.315 11.435 11.435 18.517 11.435h200.789c11.776 0 21.333-9.557 21.333-21.333v-94.208c0-11.776-9.557-21.333-21.333-21.333h-129.024l-213.717-427.563c-11.051-22.059-27.008-21.205-35.712 1.877l-258.005 688.128-125.568-251.008z" />
<glyph unicode="&#xe601;" d="M706.432 453.248c133.248 0 241.621-108.373 241.621-241.621s-108.373-241.621-241.621-241.621c-133.248 0-241.621 108.373-241.621 241.621s108.373 241.621 241.621 241.621zM706.432 487.211c-152.192 0-275.584-123.392-275.584-275.584s123.392-275.627 275.584-275.627c152.192 0 275.584 123.392 275.584 275.584s-123.392 275.627-275.584 275.627v0zM862.080 190.123c0-11.221-9.088-20.309-20.309-20.309h-88.107v-88.107c0-11.221-9.088-20.352-20.309-20.352h-40.661c-11.221 0-20.352 9.088-20.352 20.352v88.107h-88.064c-11.221 0-20.352 9.088-20.352 20.309v40.661c0 11.221 9.088 20.352 20.352 20.352h88.064v88.064c0 11.221 9.088 20.309 20.352 20.309h40.661c11.221 0 20.309-9.088 20.309-20.309v-88.107h88.107c11.221 0 20.309-9.088 20.309-20.352v-40.619zM252.672 431.915h-115.755c-6.997 0-12.715 5.717-12.715 12.715v115.755c0 6.997 5.717 12.757 12.715 12.757h115.712c6.997 0 12.715-5.717 12.715-12.757v-115.712c0.043-7.040-5.675-12.757-12.672-12.757zM252.672 211.2h-115.755c-6.997 0-12.715 5.717-12.715 12.715v115.712c0 6.997 5.717 12.757 12.715 12.757h115.712c6.997 0 12.715-5.717 12.715-12.757v-115.712c0.043-6.997-5.675-12.715-12.672-12.715zM473.088 432.213h-115.627c-6.997 0-12.715 5.717-12.715 12.715v115.627c0 6.997 5.717 12.715 12.715 12.715h115.669c6.997 0 12.715-5.717 12.715-12.715v-115.627c0-6.997-5.76-12.715-12.757-12.715zM706.432 487.211v73.387c0 6.997-5.717 12.715-12.715 12.715h-115.669c-6.997 0-12.715-5.717-12.715-12.715v-112.555c41.301 24.704 89.472 39.168 141.099 39.168zM443.307 129.451h-379.435v511.104h702.805v-160.128c22.485-5.035 43.861-12.843 63.872-22.955v310.869c0 34.944-28.971 63.872-63.872 63.872h-63.872v47.872c0 43.947-35.968 79.915-79.829 79.915h-31.957c-43.947 0-79.915-35.925-79.915-79.915v-47.872h-191.659v47.872c0 43.989-35.925 79.915-79.829 79.915h-31.957c-43.947 0-79.872-35.925-79.872-79.915v-47.872h-63.915c-34.901 0-63.872-28.971-63.872-63.872v-638.891c0-34.944 28.971-63.872 63.872-63.872h409.131c-12.373 19.755-22.571 41.088-29.696 63.872zM575.019 880.085c0 9.003 6.997 16 16 16h31.957c8.96 0 15.957-6.997 15.957-16v-143.701c0-9.045-6.997-16-15.957-16h-31.957c-9.045 0-16 6.997-16 16v143.701zM191.659 880.085c0 9.003 6.997 16 16 16h31.957c8.96 0 15.915-6.997 15.915-16v-143.701c0-9.045-6.997-16-15.915-16h-31.957c-9.003 0-16 6.997-16 16v143.701zM430.848 211.627c0 51.627 14.464 99.797 39.168 141.099h-112.555c-6.997 0-12.715-5.717-12.715-12.715v-115.669c0-6.997 5.717-12.715 12.715-12.715h73.387z" />
<glyph unicode="&#xe602;" d="M810.667 490.667h-256v256c0 23.595-19.072 42.667-42.667 42.667s-42.667-19.072-42.667-42.667v-256h-256c-23.595 0-42.667-19.072-42.667-42.667s19.072-42.667 42.667-42.667h256v-256c0-23.595 19.072-42.667 42.667-42.667s42.667 19.072 42.667 42.667v256h256c23.595 0 42.667 19.072 42.667 42.667s-19.072 42.667-42.667 42.667zM512 960c-282.325 0-512-229.675-512-512s229.675-512 512-512c282.325 0 512 229.675 512 512s-229.675 512-512 512zM512 21.333c-235.264 0-426.667 191.403-426.667 426.667s191.403 426.667 426.667 426.667c235.264 0 426.667-191.403 426.667-426.667s-191.403-426.667-426.667-426.667z" />
<glyph unicode="&#xe603;" d="M201.6 758.4c-171.221-171.179-171.221-449.621 0-620.843s449.664-171.179 620.843 0c171.221 171.179 171.221 449.621 0 620.843s-449.707 171.179-620.843 0zM783.531 490.667c23.595 0 42.667-19.072 42.667-42.667 0-11.776-4.779-22.443-12.501-30.165s-18.389-12.501-30.165-12.501h-228.864v-228.864c0-11.776-4.779-22.443-12.501-30.165s-18.389-12.501-30.165-12.501c-23.552 0-42.667 19.115-42.667 42.667v228.864h-228.864c-23.595 0-42.667 19.072-42.667 42.667s19.072 42.667 42.667 42.667h228.864v228.864c0 23.552 19.115 42.667 42.667 42.667s42.667-19.115 42.667-42.667v-228.864h228.864z" />
<glyph unicode="&#xe604;" d="M987.563 9.856c0-40.021-33.152-73.173-73.173-73.173h-804.821c-40.021 0-73.173 33.152-73.173 73.173v731.691c0 40.021 33.152 73.173 73.173 73.173h73.173v54.827c0 50.347 41.173 91.52 91.477 91.52h36.608c50.261 0 91.392-41.173 91.392-91.52v-54.827h219.52v54.827c0 50.347 41.173 91.52 91.477 91.52h36.565c50.261 0 91.435-41.173 91.435-91.52v-54.827h73.173c40.021 0 73.173-33.152 73.173-73.173v-731.691zM914.432 9.856v585.344h-804.864v-585.344h804.864zM329.088 869.547c0 10.325-8.021 18.347-18.261 18.347h-36.565c-10.325 0-18.347-8.021-18.347-18.347v-164.565c0-10.325 8.021-18.347 18.347-18.347h36.608c10.24 0 18.261 8.021 18.261 18.347v164.565zM768.085 869.547c0 10.325-8.021 18.347-18.261 18.347h-36.565c-10.325 0-18.347-8.021-18.347-18.347v-164.565c0-10.325 8.021-18.347 18.347-18.347h36.565c10.24 0 18.261 8.021 18.261 18.347v164.565zM325.589 356.608h-132.437c-8.021 0-14.592 6.571-14.592 14.592v132.437c0 8.021 6.571 14.592 14.592 14.592h132.437c8.021 0 14.592-6.571 14.592-14.592v-132.437c0-8.021-6.571-14.592-14.592-14.592zM325.589 103.979h-132.437c-8.021 0-14.592 6.571-14.592 14.592v132.437c0 8.021 6.571 14.592 14.592 14.592h132.437c8.021 0 14.592-6.571 14.592-14.592v-132.437c0-8.021-6.571-14.592-14.592-14.592zM578.219 356.608h-132.437c-8.021 0-14.592 6.571-14.592 14.592v132.437c0 8.021 6.571 14.592 14.592 14.592h132.437c8.021 0 14.592-6.571 14.592-14.592v-132.437c0-8.021-6.571-14.592-14.592-14.592zM578.219 103.979h-132.437c-8.021 0-14.592 6.571-14.592 14.592v132.437c0 8.021 6.571 14.592 14.592 14.592h132.437c8.021 0 14.592-6.571 14.592-14.592v-132.437c0-8.021-6.571-14.592-14.592-14.592zM830.848 356.608h-132.437c-8.021 0-14.592 6.571-14.592 14.592v132.437c0 8.021 6.571 14.592 14.592 14.592h132.437c8.021 0 14.592-6.571 14.592-14.592v-132.437c0-8.021-6.571-14.592-14.592-14.592zM830.848 103.979h-132.437c-8.021 0-14.592 6.571-14.592 14.592v132.437c0 8.021 6.571 14.592 14.592 14.592h132.437c8.021 0 14.592-6.571 14.592-14.592v-132.437c0-8.021-6.571-14.592-14.592-14.592z" />
<glyph unicode="&#xe605;" d="M469.333 832v-665.003l-311.168 311.168c-16.683 16.683-43.648 16.683-60.331 0s-16.683-43.648 0-60.331l384-384c7.723-7.723 18.389-12.501 30.165-12.501 11.733 0 22.315 4.736 30.080 12.416 0 0.043 0.085 0 0.085 0.043l384 383.957c8.32 8.32 12.501 19.243 12.501 30.165s-4.181 21.845-12.501 30.165c-16.683 16.683-43.648 16.683-60.331 0l-311.168-311.125v665.045c0 23.595-19.072 42.667-42.667 42.667s-42.667-19.072-42.667-42.667z" />
<glyph unicode="&#xe606;" d="M896 490.667h-665.003l311.168 311.168c16.683 16.683 16.683 43.648 0 60.331s-43.648 16.683-60.331 0l-384-384c-7.723-7.723-12.501-18.389-12.501-30.165 0-11.733 4.736-22.357 12.416-30.080 0.043 0 0-0.043 0.043-0.085l383.957-384c8.32-8.32 19.243-12.501 30.165-12.501s21.845 4.181 30.165 12.501c16.683 16.683 16.683 43.648 0 60.331l-311.125 311.168h665.045c23.595 0 42.667 19.115 42.667 42.667s-19.072 42.667-42.667 42.667z" />
<glyph unicode="&#xe607;" d="M128 405.333h665.003l-311.168-311.168c-16.683-16.683-16.683-43.648 0-60.331s43.648-16.683 60.331 0l384 384.043c7.723 7.68 12.501 18.347 12.501 30.123 0 11.733-4.736 22.357-12.416 30.080-0.043 0 0 0.043-0.043 0.085l-383.957 384c-8.32 8.32-19.243 12.501-30.165 12.501s-21.845-4.181-30.165-12.501c-16.683-16.683-16.683-43.648 0-60.331l311.125-311.168h-665.045c-23.595 0-42.667-19.115-42.667-42.667s19.072-42.667 42.667-42.667z" />
<glyph unicode="&#xe608;" d="M554.667 64v665.003l311.168-311.168c16.683-16.683 43.648-16.683 60.331 0s16.683 43.648 0 60.331l-384 384c-7.723 7.723-18.389 12.501-30.165 12.501-11.733 0-22.315-4.736-30.080-12.416 0-0.043-0.085 0-0.085-0.043l-384-383.957c-8.32-8.32-12.501-19.243-12.501-30.165s4.181-21.845 12.501-30.165c16.683-16.683 43.648-16.683 60.331 0l311.168 311.125v-665.045c0-23.595 19.072-42.667 42.667-42.667s42.667 19.072 42.667 42.667z" />
<glyph unicode="&#xe609;" d="M111.915 168.491c0 50.304 21.077 98.859 57.173 134.315l332.075 332.117c22.272 22.869 53.163 36.011 85.163 36.011 62.933 0 112-49.152 112-112.043 0-31.403-13.099-62.891-36.011-85.163l-234.325-234.325c-3.413-3.456-8.021-5.76-12.587-5.76-11.989 0-44.587 32.597-44.587 44.629 0 4.523 2.261 9.131 5.76 12.544l234.325 234.368c8.576 9.173 14.251 21.163 14.251 33.707 0 22.315-16.597 38.315-38.272 38.315-12.587 0-25.173-5.163-34.347-13.739l-332.075-332.075c-21.76-21.76-36.011-51.456-36.011-82.859 0-48.64 36.011-84.608 84.608-84.608 30.848 0 61.141 14.293 82.901 36.011l443.605 444.117c27.435 27.435 43.435 64.597 43.435 103.467 0 80.597-62.933 146.347-144.085 146.347-38.827 0-75.989-17.152-103.424-43.989l-346.411-347.051c-3.413-3.413-8.021-5.717-13.184-5.717-11.989 0-43.989 32-43.989 44.032 0 4.523 2.261 9.131 5.76 12.544l345.813 346.411c41.685 41.173 97.664 64.597 155.989 64.597 121.173 0 216.661-96.597 216.661-217.771 0-57.728-23.979-113.749-64.597-154.923l-444.117-443.563c-35.413-35.456-84.011-57.173-134.315-57.173-89.216 0.043-157.184 68.011-157.184 157.227z" />
<glyph unicode="&#xe60a;" d="M987.733 9.003c0-40.021-33.152-73.173-73.173-73.173h-804.821c-40.021 0-73.173 33.152-73.173 73.173v731.648c0 40.021 33.152 73.173 73.173 73.173h73.173v54.827c0 50.347 41.173 91.52 91.477 91.52h36.608c50.261 0 91.392-41.173 91.392-91.52v-54.827h219.52v54.827c0 50.347 41.173 91.52 91.477 91.52h36.565c50.261 0 91.435-41.173 91.435-91.52v-54.827h73.173c40.021 0 73.173-33.152 73.173-73.173v-731.648zM914.56 9.003v585.344h-804.821v-585.344h804.821zM329.259 868.651c0 10.325-8.021 18.347-18.261 18.347h-36.565c-10.325 0-18.347-8.021-18.347-18.347v-164.565c0-10.325 7.979-18.347 18.347-18.347h36.608c10.24 0 18.261 8.021 18.261 18.347v164.565zM768.256 868.651c0 10.325-8.021 18.347-18.261 18.347h-36.565c-10.325 0-18.347-8.021-18.347-18.347v-164.565c0-10.325 7.979-18.347 18.347-18.347h36.565c10.24 0 18.261 8.021 18.261 18.347v164.565zM427.648 124.672h-77.227v211.499l0.768 34.773 1.237 38.016c-12.843-12.843-21.76-21.248-26.752-25.259l-41.984-33.749-37.248 46.507 117.76 93.739h63.488v-365.525zM777.813 200.405h-43.989v-75.733h-75.477v75.733h-155.989v53.76l160.256 235.989h71.253v-229.76h43.989v-59.989zM658.347 260.437v61.995c0 10.325 0.427 25.344 1.237 45.013s1.493 31.061 2.005 34.261h-2.005c-6.187-13.653-13.568-27.008-22.272-40.021l-66.987-101.248h88.021z" />
<glyph unicode="&#xe60b;" d="M623.019 374.827c-0.512-20.011-17.664-36.608-37.675-36.608h-146.347c-20.011 0-37.163 16.597-37.76 36.608l-16 438.997c-0.597 20.011 15.403 36.565 35.413 36.565h182.912c20.011 0 36.011-16.597 35.499-36.565l-16.043-438.997zM621.909 82.176c0-20.011-16.597-36.565-36.565-36.565h-146.347c-20.011 0-36.608 16.597-36.608 36.565v128.043c0 20.011 16.597 36.565 36.608 36.565h146.347c20.011 0 36.565-16.597 36.565-36.565v-128.043z" />
<glyph unicode="&#xe60c;" d="M1014.912 80.512c12.587-22.272 11.989-49.707-1.152-72.021-13.099-22.272-37.163-36.011-62.848-36.011h-877.824c-25.771 0-49.749 13.696-62.933 36.011-13.141 22.315-13.653 49.749-1.067 72.021l438.912 804.693c12.501 23.424 37.077 38.272 64 38.272 26.837 0 51.413-14.891 64-38.272l438.912-804.693zM594.347 613.717c0 3.456-1.749 8.021-5.76 10.88-3.413 2.859-8.576 6.272-13.739 6.272h-125.739c-5.163 0-10.24-3.413-13.653-6.272-4.011-2.859-5.76-8.576-5.76-11.989l9.771-261.163c0-7.467 8.576-13.184 19.413-13.184h105.771c10.24 0 18.816 5.717 19.413 13.184l10.283 262.272zM585.173 246.229c0 10.283-8.021 18.859-18.347 18.859h-109.739c-10.24 0-18.261-8.576-18.261-18.859v-108.544c0-10.283 8.021-18.859 18.261-18.859h109.739c10.325 0 18.347 8.576 18.347 18.859v108.544z" />
<glyph unicode="&#xe60d;" d="M384-64h-256c-23.595 0-42.667 19.115-42.667 42.667v85.333c0 23.552 19.072 42.667 42.667 42.667h256c23.595 0 42.667-19.115 42.667-42.667v-85.333c0-23.552-19.072-42.667-42.667-42.667zM768 547.541v85.333c0 23.552-19.072 42.667-42.667 42.667h-597.333c-23.595 0-42.667-19.115-42.667-42.667v-85.333c0-23.552 19.072-42.667 42.667-42.667h597.333c23.595 0 42.667 19.115 42.667 42.667zM597.333 263.125v85.333c0 23.552-19.072 42.667-42.667 42.667h-426.667c-23.595 0-42.667-19.115-42.667-42.667v-85.333c0-23.552 19.072-42.667 42.667-42.667h426.667c23.595 0 42.667 19.072 42.667 42.667zM938.667 832v85.333c0 23.552-19.072 42.667-42.667 42.667h-768c-23.595 0-42.667-19.115-42.667-42.667v-85.333c0-23.552 19.072-42.667 42.667-42.667h768c23.595 0 42.667 19.115 42.667 42.667z" />
<glyph unicode="&#xe60e;" d="M170.667 320v-256c0-23.595-19.115-42.667-42.667-42.667h-85.333c-23.552 0-42.667 19.072-42.667 42.667v256c0 23.595 19.115 42.667 42.667 42.667h85.333c23.552 0 42.667-19.072 42.667-42.667zM412.459 704h-85.333c-23.552 0-42.667-19.072-42.667-42.667v-597.333c0-23.595 19.115-42.667 42.667-42.667h85.333c23.552 0 42.667 19.072 42.667 42.667v597.333c0 23.595-19.115 42.667-42.667 42.667zM696.875 533.333h-85.333c-23.552 0-42.667-19.072-42.667-42.667v-426.667c0-23.595 19.115-42.667 42.667-42.667h85.333c23.552 0 42.667 19.072 42.667 42.667v426.667c0 23.595-19.072 42.667-42.667 42.667zM981.333 874.667h-85.333c-23.552 0-42.667-19.072-42.667-42.667v-768c0-23.595 19.115-42.667 42.667-42.667h85.333c23.552 0 42.667 19.072 42.667 42.667v768c0 23.595-19.115 42.667-42.667 42.667z" />
<glyph unicode="&#xe60f;" d="M896 874.667c-70.699 0-128-57.301-128-128 0-21.035 5.589-40.619 14.549-58.112l-136.704-212.693c-1.963 0.085-3.84 0.597-5.845 0.597-17.024 0-33.195-3.499-48.085-9.515l-81.621 63.488c0.725 5.632 1.707 11.264 1.707 17.109 0 70.699-57.301 128-128 128s-128-57.301-128-128c0-21.632 5.888-41.771 15.36-59.648l-132.139-211.712c-3.712 0.341-7.381 1.152-11.221 1.152-70.699 0-128-57.301-128-128s57.301-128 128-128c70.699 0 128 57.301 128 128 0 19.029-4.437 36.949-11.861 53.205l135.68 217.472c1.451-0.043 2.773-0.427 4.224-0.427 17.024 0 33.195 3.499 48.085 9.515l81.621-63.488c-0.811-5.675-1.749-11.307-1.749-17.152 0-70.699 57.301-128 128-128s128 57.301 128 128c0 21.035-5.589 40.619-14.549 58.112l136.704 212.693c2.005-0.085 3.84-0.597 5.845-0.597 70.699 0 128 57.301 128 128s-57.301 128-128 128z" />
<glyph unicode="&#xe610;" d="M372.693 755.797v-375.339l269.824-269.824c-55.168-33.749-119.125-51.925-184.491-51.925-194.987 0-353.664 158.677-353.664 353.664 0 165.632 112.256 305.237 268.331 343.424zM419.115 849.493c-1.195 0-2.475-0.043-3.712-0.171-222.336-21.461-396.373-208.981-396.373-436.949 0-242.389 196.651-438.997 438.997-438.997 106.453 0 204.587 38.059 280.661 101.419 18.133 15.147 17.92 42.411 1.237 59.093l-281.899 281.899v392.917c0 22.357-17.152 40.789-38.912 40.789v0zM616.533 828.885c126.805-31.403 226.603-131.2 258.005-258.005h-258.005v258.005zM570.112 922.667c-21.76 0-38.912-18.475-38.912-40.789v-396.331h396.331c23.595 0 42.88 19.115 40.619 42.581-20.096 208.384-185.899 374.315-394.325 394.368-1.237 0.128-2.475 0.171-3.712 0.171v0zM1004.757 369.792c-8.661-89.899-44.544-172.288-99.371-238.080-15.104-18.091-42.411-17.92-59.051-1.195l-281.387 281.899h399.189c23.552-0.043 42.88-19.157 40.619-42.624z" />
<glyph unicode="&#xe611;" d="M769.365 102.741c-79.403-80.597-190.336-130.347-312.064-130.347-242.389 0-438.997 196.608-438.997 438.997s196.608 438.997 438.997 438.997v-435.584l312.064-312.064zM530.475 484.565v438.997c242.389 0 438.997-196.608 438.997-438.997h-438.997zM1006.037 411.435c0-121.771-49.749-232.661-130.347-312.064l-311.552 312.064h441.899z" />
<glyph unicode="&#xe612;" d="M1024 145.451c0-115.627-93.824-209.451-209.408-209.451h-605.099c-115.669 0-209.493 93.824-209.493 209.451v605.099c0 115.627 93.824 209.451 209.493 209.451h605.099c29.099 0 58.155-5.845 85.077-18.176 6.485-2.901 11.691-9.472 13.099-16.768 1.408-8.021-0.768-15.232-6.571-21.077l-35.584-35.627c-4.437-4.352-10.923-7.296-16.768-7.296-2.176 0-4.309 0.768-6.485 1.451-10.923 2.901-21.845 4.395-32.768 4.395h-605.099c-64 0-116.352-52.395-116.352-116.395v-605.099c0-64 52.352-116.395 116.352-116.395h605.099c64 0 116.352 52.395 116.352 116.395v184.704c0 5.845 2.176 11.648 6.571 16l46.507 46.549c5.077 5.12 10.923 7.296 16.768 7.296 2.901 0 5.845-0.725 8.747-2.176 8.661-3.669 14.507-11.648 14.507-21.12v-231.211zM599.979 140.373c-23.253-23.296-59.563-23.296-82.901 0l-312.661 312.704c-23.253 23.296-23.253 59.648 0 82.901l80 80c23.253 23.296 59.563 23.296 82.901 0l191.232-191.275 470.528 470.571c23.339 23.253 59.648 23.253 82.901 0l80-80c23.339-23.296 23.339-59.648 0-82.901l-592-592z" horiz-adv-x="1210" />
<glyph unicode="&#xe613;" d="M1106.859 661.845l-625.408-625.451c-13.099-13.099-31.275-20.395-49.493-20.395-18.176 0-36.352 7.296-49.408 20.395l-362.155 362.155c-13.141 13.099-20.395 31.275-20.395 49.451 0 18.219 7.253 36.352 20.352 49.451l98.901 98.901c13.099 13.099 31.232 20.395 49.451 20.395s36.309-7.296 49.408-20.395l213.803-214.528 477.099 477.824c13.141 13.099 31.317 20.352 49.493 20.352s36.352-7.253 49.408-20.352l98.901-98.901c13.099-13.099 20.352-31.275 20.352-49.451 0.043-18.176-7.211-36.395-20.309-49.451z" horiz-adv-x="1127" />
<glyph unicode="&#xe614;" d="M512 874.667c235.264 0 426.667-191.403 426.667-426.667s-191.403-426.667-426.667-426.667c-235.264 0-426.667 191.403-426.667 426.667s191.403 426.667 426.667 426.667zM512 960c-282.752 0-512-229.248-512-512 0-282.795 229.248-512 512-512s512 229.205 512 512c0 282.752-229.248 512-512 512v0z" />
<glyph unicode="&#xe615;" d="M1024 448.896c0-282.77-229.23-512-512-512s-512 229.23-512 512c0 282.77 229.23 512 512 512s512-229.23 512-512z" />
<glyph unicode="&#xe616;" d="M512 960c-282.325 0-512-229.675-512-512s229.675-512 512-512 512 229.675 512 512c0 282.325-229.632 512-512 512zM512 21.333c-235.221 0-426.667 191.403-426.667 426.667s191.445 426.667 426.667 426.667 426.667-191.403 426.667-426.667c0-235.264-191.403-426.667-426.667-426.667zM734.208 670.165c-16.683 16.683-43.648 16.683-60.331 0l-161.877-161.835-161.792 161.835c-16.683 16.683-43.648 16.683-60.331 0s-16.683-43.648 0-60.331l161.792-161.835-161.835-161.835c-16.683-16.683-16.683-43.648 0-60.331 8.363-8.32 19.285-12.501 30.208-12.501s21.845 4.181 30.165 12.501l161.792 161.835 161.835-161.835c8.32-8.32 19.243-12.501 30.165-12.501s21.845 4.181 30.165 12.501c16.683 16.683 16.683 43.648 0 60.331l-161.792 161.835 161.835 161.835c16.64 16.683 16.64 43.648 0 60.331z" />
<glyph unicode="&#xe617;" d="M512 886.997c-242.091 0-438.997-196.864-438.997-438.997s196.907-438.997 438.997-438.997c242.091 0 438.997 196.864 438.997 438.997s-196.907 438.997-438.997 438.997zM734.165 286.165c16.683-16.683 16.683-43.648 0-60.331-8.32-8.32-19.243-12.501-30.165-12.501s-21.845 4.181-30.165 12.501l-161.835 161.835-161.835-161.835c-8.32-8.32-19.243-12.501-30.165-12.501s-21.845 4.181-30.165 12.501c-16.683 16.683-16.683 43.648 0 60.331l161.835 161.835-161.835 161.835c-16.683 16.683-16.683 43.648 0 60.331s43.648 16.683 60.331 0l161.835-161.835 161.835 161.835c16.683 16.683 43.648 16.683 60.331 0s16.683-43.648 0-60.331l-161.835-161.835 161.835-161.835z" />
<glyph unicode="&#xe618;" d="M23.040 705.493h977.92c24.576 0 30.421-14.080 13.013-31.403l-470.571-470.571c-17.323-17.365-45.483-17.365-62.848 0l-470.571 470.571c-17.323 17.323-11.52 31.403 13.056 31.403z" />
<glyph unicode="&#xe619;" d="M987.563 100.437c0-50.304-41.173-91.477-91.477-91.477h-768.213c-50.304 0-91.477 41.173-91.477 91.477v695.083c0 50.304 41.173 91.477 91.477 91.477h768.256c50.304 0 91.477-41.173 91.477-91.477v-695.083zM475.435 82.176v630.272h-365.867v-612.011c0-9.685 8.576-18.304 18.304-18.304h347.563zM914.432 712.448h-365.824v-630.272h347.563c9.728 0 18.304 8.576 18.304 18.304v611.968z" />
<glyph unicode="&#xe61a;" d="M512 886.955c-282.923 0-512-164.011-512-365.824 0-116.011 75.52-219.264 193.067-286.165-26.667-95.36-68.011-129.835-104.021-170.197-8.576-10.496-18.176-18.859-15.488-33.024 0 0 0 0 0-0.768 2.901-13.824 14.933-22.869 27.52-21.845 22.315 2.944 44.501 6.955 65.323 12.757 98.645 25.088 187.989 72.021 262.656 138.197 26.923-2.944 54.912-4.523 82.901-4.523 282.837 0 512 163.371 512 365.525 0.043 202.368-229.12 365.867-511.957 365.867zM256.043 426.667c-47.189 0-85.333 38.229-85.333 85.333s38.144 85.333 85.333 85.333c47.061 0 85.333-38.229 85.333-85.333s-38.272-85.333-85.333-85.333zM512 426.667c-47.147 0-85.333 38.229-85.333 85.333s38.187 85.333 85.333 85.333c47.104 0 85.333-38.229 85.333-85.333s-38.229-85.333-85.333-85.333zM768 426.667c-47.147 0-85.333 38.229-85.333 85.333s38.187 85.333 85.333 85.333c47.104 0 85.333-38.229 85.333-85.333s-38.229-85.333-85.333-85.333z" />
<glyph unicode="&#xe61b;" d="M85.333 64v85.333h128v42.667h-128v85.333h128v42.667h-128v85.333h128v42.667h-128v85.333h128v42.667h-128v85.333h128v85.333h-213.333v-768h213.333v85.333zM768 618.667v-85.333h170.667v-85.333h-170.667v-42.667h170.667v-85.333h-170.667v-42.667h170.667v-85.333h-170.667v-42.667h170.667v-85.333h-170.667v-85.333h256v640zM256 960v-1024h469.333v1024h-469.333zM640 21.333h-298.667v85.333h298.667v-85.333zM640 149.333h-298.667v85.333h298.667v-85.333zM640 277.333h-298.667v85.333h298.667v-85.333zM640 405.333h-298.667v85.333h298.667v-85.333zM640 533.333h-298.667v85.333h298.667v-85.333zM640 661.333h-298.667v85.333h298.667v-85.333zM640 789.333h-298.667v85.333h298.667v-85.333z" />
<glyph unicode="&#xe61c;" d="M512 960c-282.325 0-512-229.675-512-512s229.675-512 512-512c282.325 0 512 229.675 512 512s-229.675 512-512 512zM512 21.333c-235.264 0-426.667 191.403-426.667 426.667s191.403 426.667 426.667 426.667c235.264 0 426.667-191.403 426.667-426.667s-191.403-426.667-426.667-426.667zM347.691 149.333c-7.808 0-15.573 2.133-22.4 6.357-12.587 7.808-20.267 21.504-20.267 36.309v347.776c0 16.171 9.131 30.976 23.595 38.187l328.576 164.224c13.269 6.571 28.971 5.931 41.515-1.877 12.587-7.808 20.267-21.504 20.267-36.309v-347.691c0-16.171-9.131-30.933-23.595-38.144l-328.576-164.309c-6.059-3.029-12.544-4.523-19.115-4.523zM390.357 513.408v-252.373l243.243 121.643-243.243 130.731z" />
<glyph unicode="&#xe61d;" d="M992.512 345.6l-81.451 33.707c3.84 22.357 6.272 45.227 6.272 68.693s-2.432 46.293-6.315 68.693l81.323 33.664c22.741 9.472 36.992 36.608 29.696 60.16-4.352 14.251-9.429 28.416-15.232 42.496-5.803 14.037-12.245 27.605-19.2 40.789-11.563 21.803-40.789 30.976-63.573 21.504l-81.365-33.707c-26.624 37.632-59.477 70.443-97.067 97.109l33.749 81.493c9.472 22.784 0.299 52.053-21.675 63.317-26.667 13.781-54.485 25.301-83.115 34.432-23.509 7.467-50.688-6.656-60.16-29.483l-33.707-81.408c-22.4 3.84-45.227 6.272-68.693 6.272s-46.293-2.432-68.651-6.272l-33.664 81.323c-9.472 22.784-36.651 36.949-60.203 29.739-14.293-4.395-28.416-9.429-42.453-15.232-14.080-5.845-27.648-12.288-40.832-19.243-21.845-11.52-30.933-40.789-21.504-63.573l33.707-81.365c-37.589-26.667-70.443-59.52-97.067-97.109l-81.493 33.792c-22.784 9.387-52.053 0.213-63.403-21.717-13.781-26.667-25.216-54.485-34.389-83.072-7.509-23.509 6.699-50.688 29.397-60.16l81.493-33.707c-3.84-22.4-6.272-45.269-6.272-68.736s2.432-46.293 6.272-68.693l-81.323-33.664c-22.741-9.429-36.992-36.565-29.696-60.16 4.395-14.293 9.429-28.416 15.189-42.453 5.803-14.080 12.331-27.648 19.243-40.832 11.605-21.76 40.789-30.933 63.573-21.504l81.365 33.707c26.624-37.632 59.477-70.443 97.067-97.109l-33.749-81.493c-9.472-22.784-0.299-52.011 21.675-63.317 26.667-13.781 54.485-25.301 83.115-34.432 23.467-7.467 50.688 6.656 60.117 29.44l33.749 81.451c22.443-3.84 45.269-6.272 68.736-6.272s46.293 2.432 68.651 6.272l33.664-81.28c9.472-22.784 36.608-36.992 60.16-29.739 14.251 4.437 28.416 9.429 42.453 15.275 14.080 5.803 27.648 12.288 40.789 19.243 21.888 11.52 30.976 40.789 21.547 63.573l-33.664 81.365c37.589 26.624 70.4 59.477 97.024 97.024l81.493-33.707c22.741-9.472 52.011-0.213 63.317 21.632 13.824 26.709 25.301 54.485 34.475 83.157 7.509 23.424-6.656 50.645-29.397 60.117zM832 448c0-176.469-143.531-320-320-320s-320 143.531-320 320 143.531 320 320 320c176.469 0 320-143.531 320-320z" />
<glyph unicode="&#xe61e;" d="M731.648 394.539c0-7.424-5.717-16-13.184-17.109l-88.576-13.696c-4.565-14.891-10.88-29.184-18.304-43.435 16-22.869 33.152-43.989 51.456-65.749 2.304-3.413 4.011-6.827 4.011-11.392 0-4.011-1.152-8.021-4.011-10.88-11.477-15.403-75.477-85.163-92.032-85.163-4.565 0-8.576 1.707-11.989 4.011l-65.749 51.456c-14.293-7.424-28.587-13.184-43.989-17.707-2.859-29.184-5.717-60.629-13.184-88.619-2.261-8.021-9.131-13.696-17.109-13.696h-106.325c-8.021 0-16 6.272-17.109 14.293l-13.184 87.467c-14.891 4.565-29.184 10.88-42.88 17.707l-67.456-50.987c-2.816-2.816-7.424-4.011-11.435-4.011-4.565 0-8.576 1.707-11.989 4.565-14.891 13.696-82.347 74.88-82.347 91.477 0 4.011 1.749 7.424 4.011 10.88 16.597 21.717 33.749 42.88 50.347 65.152-8.021 15.403-14.891 30.848-20.053 46.848l-86.869 13.739c-7.979 1.152-13.696 8.619-13.696 16.597v105.728c0 7.424 5.717 16 13.184 17.109l88.576 13.696c4.565 14.933 10.88 29.227 18.261 43.52-16 22.869-33.152 43.989-51.456 65.749-2.304 3.413-4.011 7.424-4.011 11.435s1.152 8.021 4.011 11.435c11.477 15.445 75.477 84.608 92.032 84.608 4.608 0 8.576-1.707 11.989-4.011l65.749-51.456c14.293 7.424 28.587 13.184 43.989 18.304 2.859 28.587 5.717 60.032 13.184 88.021 2.261 8.021 9.131 13.696 17.109 13.696h106.368c8.021 0 16-6.315 17.109-14.293l13.184-87.467c14.891-4.565 29.184-10.88 42.88-17.707l67.456 50.859c3.413 2.816 7.424 4.011 11.435 4.011 4.565 0 8.576-1.707 11.989-4.565 14.891-13.696 82.347-75.477 82.347-91.477 0-4.011-1.749-7.424-4.011-10.88-16.597-22.272-33.749-42.88-49.749-65.152 7.424-15.403 14.293-30.848 19.456-46.848l86.869-13.184c8.021-1.707 13.696-9.173 13.696-17.152v-105.728zM365.824 594.603c-80.597 0-146.347-65.749-146.347-146.347s65.749-146.347 146.347-146.347 146.347 65.749 146.347 146.347c0 80.64-65.749 146.347-146.347 146.347zM1097.515 700.971c0-8.576-73.771-16.597-85.163-17.749-4.608-10.837-10.283-20.565-17.152-29.696 5.163-11.435 29.184-68.565 29.184-78.891 0-1.707-0.597-2.859-2.304-4.011-6.869-4.011-68.011-40.576-70.869-40.576-7.424 0-50.304 57.173-56.021 65.707-5.76-0.555-11.477-1.109-17.152-1.109-5.717 0-11.435 0.597-17.152 1.109-5.717-8.533-48.597-65.707-55.979-65.707-2.859 0-64 36.565-70.869 40.576-1.707 1.109-2.304 2.816-2.304 4.011 0 9.685 23.979 67.456 29.184 78.891-6.869 9.173-12.587 18.859-17.152 29.696-11.435 1.152-85.163 9.173-85.163 17.749v80c0 8.576 73.771 16.597 85.163 17.749 4.565 10.283 10.283 20.523 17.152 29.696-5.163 11.435-29.184 69.163-29.184 78.891 0 1.152 0.597 2.859 2.304 4.011 6.869 3.413 68.011 40.021 70.869 40.021 7.424 0 50.304-56.576 55.979-65.109 5.76 0.555 11.435 1.109 17.152 1.109s11.435-0.597 17.152-1.109c16 22.315 33.109 44.587 52.565 64l3.413 1.109c2.859 0 64-36.011 70.869-40.021 1.707-1.109 2.304-2.816 2.304-4.011 0-10.283-23.979-67.456-29.184-78.891 6.869-9.173 12.587-19.413 17.152-29.696 11.392-1.152 85.163-9.173 85.163-17.749v-80zM1097.515 115.627c0-8.576-73.771-16.597-85.163-17.749-4.608-10.837-10.283-20.523-17.152-29.696 5.163-11.435 29.184-68.608 29.184-78.891 0-1.707-0.597-2.859-2.304-4.011-6.869-4.011-68.011-40.576-70.869-40.576-7.424 0-50.304 57.173-56.021 65.707-5.76-0.555-11.477-1.109-17.152-1.109-5.717 0-11.435 0.597-17.152 1.109-5.717-8.533-48.597-65.707-55.979-65.707-2.859 0-64 36.565-70.869 40.576-1.707 1.109-2.304 2.816-2.304 4.011 0 9.728 23.979 67.456 29.184 78.891-6.869 9.173-12.587 18.859-17.152 29.696-11.435 1.152-85.163 9.173-85.163 17.749v80c0 8.576 73.771 16.597 85.163 17.749 4.565 10.283 10.283 20.523 17.152 29.696-5.163 11.392-29.184 69.163-29.184 78.891 0 1.152 0.597 2.859 2.304 4.011 6.869 3.413 68.011 40.021 70.869 40.021 7.424 0 50.304-56.576 55.979-65.109 5.76 0.555 11.435 1.109 17.152 1.109s11.435-0.597 17.152-1.109c16 22.272 33.109 44.587 52.565 64l3.413 1.109c2.859 0 64-36.011 70.869-40.021 1.707-1.109 2.304-2.816 2.304-4.011 0-10.283-23.979-67.456-29.184-78.891 6.869-9.173 12.587-19.413 17.152-29.696 11.392-1.152 85.163-9.173 85.163-17.749v-80zM877.995 814.123c-40.021 0-73.173-33.152-73.173-73.173 0-40.576 33.152-73.173 73.173-73.173 40.576 0 73.173 33.152 73.173 73.173s-33.152 73.173-73.173 73.173zM877.995 228.779c-40.021 0-73.173-33.152-73.173-73.173 0-40.576 33.152-73.173 73.173-73.173 40.576 0 73.173 33.152 73.173 73.173s-33.152 73.173-73.173 73.173z" horiz-adv-x="1098" />
<glyph unicode="&#xe61f;" d="M1011.499 487.893l-297.728 297.728 101.547 101.547c12.203 12.203 15.872 30.549 9.259 46.507-6.613 15.915-22.144 26.325-39.424 26.325l-358.571-0.128c-23.595 0-42.667-19.115-42.667-42.667l0.043-358.4c0-17.28 10.411-32.811 26.325-39.424 5.291-2.176 10.837-3.243 16.341-3.243 11.093 0 22.016 4.309 30.165 12.501l101.547 101.547 297.728-297.685c8.32-8.32 19.243-12.501 30.123-12.501 10.923 0 21.845 4.181 30.165 12.459l95.147 95.061c7.979 8.021 12.501 18.859 12.501 30.165 0 11.349-4.523 22.187-12.501 30.208zM613.717 376.619c-15.915 6.613-34.261 2.987-46.507-9.259l-101.547-101.547-297.728 297.685c-16.683 16.683-43.648 16.64-60.331 0.043l-95.104-95.061c-8.021-8.021-12.501-18.859-12.501-30.165s4.48-22.187 12.501-30.165l297.685-297.728-101.547-101.547c-12.203-12.203-15.872-30.549-9.259-46.507 6.656-15.957 22.187-26.368 39.467-26.368l358.571 0.128c23.595 0 42.667 19.115 42.667 42.667l-0.043 358.4c0 17.28-10.411 32.811-26.325 39.424z" />
<glyph unicode="&#xe620;" d="M675.285 697.216c25.173-10.453 48.896-23.168 71.168-37.803l68.48 55.893c-32.853 24.064-68.437 44.757-107.008 60.757-126.379 52.309-265.515 52.309-391.851 0-126.336-52.352-224.725-150.741-277.077-277.077-52.395-126.336-52.395-265.557 0-391.936 6.827-16.427 22.699-26.368 39.424-26.368 5.419 0 10.965 1.067 16.299 3.285 21.76 9.003 32.085 33.963 23.083 55.765-43.648 105.301-43.648 221.269 0 326.571 43.605 105.301 125.653 187.307 230.912 230.912 105.301 43.605 221.269 43.605 326.571 0zM985.045 498.901c-16 38.571-36.693 74.197-60.757 107.051l-55.851-68.437c14.635-22.315 27.392-46.080 37.803-71.253 43.605-105.259 43.605-221.227 0-326.571-9.045-21.76 1.323-46.72 23.125-55.723 21.76-9.003 46.763 1.323 55.723 23.125 52.267 126.336 52.267 265.515-0.043 391.808zM976.555 737.579l-0.213 0.213c2.944 3.669 4.992 8.149 4.992 13.227 0 11.776-9.557 21.333-21.333 21.333-5.077 0-9.557-2.048-13.227-4.992l-0.213 0.213-488.448-398.379 0.256-0.299c-19.2-15.659-31.701-39.168-31.701-65.877 0-47.104 38.229-85.333 85.333-85.333 26.709 0 50.219 12.501 65.877 31.701l0.299-0.256 398.379 488.448zM554.667 644.352c0-23.564-19.103-42.667-42.667-42.667s-42.667 19.103-42.667 42.667c0 23.564 19.103 42.667 42.667 42.667s42.667-19.103 42.667-42.667zM213.333 303.019c0-23.564-19.103-42.667-42.667-42.667s-42.667 19.103-42.667 42.667c0 23.564 19.103 42.667 42.667 42.667s42.667-19.103 42.667-42.667zM311.467 546.219c0-23.564-19.103-42.667-42.667-42.667s-42.667 19.103-42.667 42.667c0 23.564 19.103 42.667 42.667 42.667s42.667-19.103 42.667-42.667zM896 303.019c0-23.564-19.103-42.667-42.667-42.667s-42.667 19.103-42.667 42.667c0 23.564 19.103 42.667 42.667 42.667s42.667-19.103 42.667-42.667z" />
<glyph unicode="&#xe621;" d="M476.459 483.584v391.083h-284.459c-58.923 0-106.667-47.701-106.667-106.667v-284.416h391.125zM547.627 483.584h391.040v284.416c0 58.965-47.701 106.667-106.667 106.667h-284.373v-391.083zM476.459 412.416h-391.125v-284.416c0-58.965 47.744-106.667 106.667-106.667h284.459v391.083zM547.627 412.416v-391.083h284.373c58.965 0 106.667 47.744 106.667 106.667v284.459h-391.040z" />
<glyph unicode="&#xe622;" d="M914.56 685.781c0-10.283-7.979-18.304-18.347-18.304h-54.827v-541.867c0-62.891-41.173-116.608-91.52-116.608h-475.52c-50.261 0-91.435 51.456-91.435 114.347v544.128h-54.912c-10.24 0-18.261 8.021-18.261 18.304v36.608c0 10.283 8.021 18.261 18.261 18.261h176.683l40.021 95.445c11.392 28.032 45.696 50.901 75.947 50.901h182.912c30.336 0 64.597-22.869 76.075-50.859l40.021-95.445h176.597c10.325 0 18.347-8.021 18.347-18.304v-36.608zM768.256 667.477h-512.171v-541.867c0-27.435 15.403-43.435 18.261-43.435h475.563c2.901 0 18.347 16 18.347 43.435v541.867zM402.432 210.219c0-10.283-8.021-18.304-18.347-18.304h-36.608c-10.24 0-18.261 8.021-18.261 18.304v329.259c0 10.283 8.021 18.304 18.261 18.304h36.608c10.325 0 18.347-8.021 18.347-18.304v-329.259zM640.171 740.651l-27.435 66.859c-1.749 2.304-6.827 5.717-9.728 6.272h-181.163c-3.413-0.555-8.021-3.968-9.771-6.229l-27.989-66.901h256.085zM548.736 210.219c0-10.283-8.021-18.304-18.347-18.304h-36.565c-10.24 0-18.261 8.021-18.261 18.304v329.259c0 10.283 8.021 18.304 18.261 18.304h36.565c10.325 0 18.347-8.021 18.347-18.304v-329.259zM695.083 210.219c0-10.283-8.021-18.304-18.347-18.304h-36.565c-10.24 0-18.261 8.021-18.261 18.304v329.259c0 10.283 8.021 18.304 18.261 18.304h36.565c10.325 0 18.347-8.021 18.347-18.304v-329.259z" />
<glyph unicode="&#xe623;" d="M914.56 685.781c0-10.283-7.979-18.304-18.347-18.304h-54.827v-541.867c0-62.891-41.173-116.608-91.52-116.608h-475.52c-50.261 0-91.435 51.456-91.435 114.347v544.128h-54.912c-10.24 0-18.261 8.021-18.261 18.304v36.608c0 10.283 8.021 18.261 18.261 18.261h176.683l40.021 95.445c11.392 28.032 45.696 50.901 75.947 50.901h182.912c30.336 0 64.597-22.869 76.075-50.859l40.021-95.445h176.597c10.325 0 18.347-8.021 18.347-18.304v-36.608zM402.432 576.043c0 10.283-8.021 18.304-18.347 18.304h-36.608c-10.24 0-18.261-8.021-18.261-18.304v-402.432c0-10.283 8.021-18.304 18.261-18.304h36.608c10.325 0 18.347 8.021 18.347 18.304v402.432zM640.171 740.651l-27.435 66.859c-1.749 2.304-6.827 5.717-9.728 6.272h-181.163c-3.413-0.555-8.021-3.968-9.771-6.229l-27.989-66.901h256.085zM548.736 576.043c0 10.283-8.021 18.304-18.347 18.304h-36.565c-10.24 0-18.261-8.021-18.261-18.304v-402.432c0-10.283 8.021-18.304 18.261-18.304h36.565c10.325 0 18.347 8.021 18.347 18.304v402.432zM695.083 576.043c0 10.283-8.021 18.304-18.347 18.304h-36.565c-10.24 0-18.261-8.021-18.261-18.304v-402.432c0-10.283 8.021-18.304 18.261-18.304h36.565c10.325 0 18.347 8.021 18.347 18.304v402.432z" />
<glyph unicode="&#xe624;" d="M877.995 45.568h-621.909c-141.184 0-256.085 114.901-256.085 256.085 0 99.456 57.771 189.781 147.499 231.509-0.597 8.576-1.152 16.597-1.152 24.576 0 161.749 130.901 292.651 292.651 292.651 118.912 0 225.835-72.021 271.019-181.803 26.24 22.869 59.989 35.456 94.848 35.456 80.597 0 146.347-65.749 146.347-146.347 0-27.989-8.021-55.467-23.424-78.891 99.499-23.467 169.771-112.043 169.771-213.803-0.043-121.088-98.389-219.435-219.563-219.435zM713.429 411.435h-128.085v201.173c0 9.685-8.576 18.304-18.261 18.304h-109.739c-9.771 0-18.347-8.576-18.347-18.304v-201.216h-128c-10.325 0-18.347-8.576-18.347-18.304 0-4.608 1.749-9.728 5.163-13.184l201.173-201.216c3.499-3.413 8.064-5.12 13.184-5.12 4.565 0 9.771 1.707 13.184 5.12l200.661 200.661c3.413 4.011 5.675 8.576 5.675 13.696-0.043 10.368-8.021 18.389-18.261 18.389z" horiz-adv-x="1098" />
<glyph unicode="&#xe625;" d="M472.832 28.587c-22.315-4.864-45.184-7.339-67.925-7.339l-6.656 0.085c-25.216 0.597-43.136-18.091-43.691-41.6-0.555-23.595 18.048-43.136 41.6-43.733l8.747-0.128c28.843 0 57.856 3.115 86.101 9.301 23.040 5.035 37.632 27.733 32.597 50.773-5.035 23.083-27.819 37.803-50.773 32.64zM288.171 43.477l-10.368 4.309c-19.712 8.576-38.571 19.115-55.979 31.275-19.456 13.525-45.952 8.704-59.392-10.624-13.483-19.328-8.747-45.909 10.581-59.392 22.101-15.36 45.867-28.672 70.741-39.509 4.309-1.835 8.576-3.627 12.885-5.333 5.205-2.048 10.539-3.029 15.787-3.029 16.981 0 32.981 10.197 39.637 26.923 8.704 21.845-2.005 46.677-23.893 55.381zM635.051 118.656c-17.365-17.963-36.949-33.877-58.197-47.36-19.925-12.587-25.813-38.997-13.184-58.88 8.107-12.8 21.973-19.84 36.096-19.84 7.808 0 15.701 2.133 22.784 6.613 26.923 17.024 51.755 37.248 73.899 60.075 16.384 16.939 15.957 43.947-0.981 60.331s-43.989 16.043-60.416-0.939zM107.179 224.896c-8.576 21.931-33.28 32.811-55.296 24.192-21.973-8.576-32.768-33.323-24.192-55.253 11.563-29.525 26.581-57.771 44.672-83.883 8.277-11.947 21.589-18.389 35.115-18.389 8.363 0 16.853 2.475 24.235 7.595 19.371 13.44 24.192 40.021 10.795 59.392-14.336 20.608-26.197 42.923-35.328 66.347zM43.307 291.541c23.552 0.427 42.325 19.84 41.941 43.392l-0.085 6.699c-0.043 22.827 2.475 45.739 7.381 68.139 5.077 22.997-9.472 45.781-32.512 50.816-22.997 5.163-45.781-9.472-50.816-32.512-6.229-28.459-9.429-57.6-9.387-86.528l0.085-8.064c0.427-23.296 19.413-41.941 42.667-41.941 0.213 0 0.469 0 0.725 0zM76.672 500.608c7.125-4.523 15.104-6.699 22.912-6.699 14.080 0 27.861 6.955 36.011 19.712 13.483 21.163 29.483 40.661 47.573 58.027 16.939 16.341 17.493 43.349 1.152 60.331-16.341 16.939-43.307 17.493-60.288 1.195-22.955-22.016-43.221-46.805-60.373-73.643-12.672-19.883-6.869-46.251 13.013-58.923zM382.848 705.707c-4.224 23.168-26.112 38.827-49.621 34.347-31.232-5.675-61.867-15.019-90.965-27.819-21.589-9.472-31.403-34.645-21.931-56.235 7.040-16 22.699-25.515 39.125-25.515 5.717 0 11.563 1.152 17.109 3.627 22.997 10.112 47.189 17.493 71.893 21.973 23.168 4.224 38.528 26.411 34.389 49.621zM769.579 317.995c-23.211 4.224-45.397-11.179-49.579-34.389-4.523-24.789-11.861-48.939-21.973-71.893-8.405-19.285-1.451-41.429 15.445-52.651 2.048-1.323 4.267-2.56 6.528-3.584 21.589-9.429 46.763 0.384 56.192 21.973 12.672 29.056 22.059 59.648 27.648 90.965 4.267 23.211-11.221 45.397-34.261 49.579zM725.333 960c-164.907 0-298.667-133.717-298.667-298.624 0-164.949 133.76-298.667 298.667-298.667s298.667 133.717 298.667 298.667c0 164.907-133.76 298.624-298.667 298.624zM874.667 618.667h-106.667v-106.667c0-23.552-19.072-42.667-42.667-42.667s-42.667 19.115-42.667 42.667v106.667h-106.667c-23.595 0-42.667 19.115-42.667 42.667s19.072 42.667 42.667 42.667h106.667v106.667c0 23.552 19.072 42.667 42.667 42.667s42.667-19.115 42.667-42.667v-106.667h106.667c23.595 0 42.667-19.115 42.667-42.667s-19.072-42.667-42.667-42.667z" />
<glyph unicode="&#xe626;" d="M1024.171 145.451c0-115.584-93.909-209.451-209.579-209.451h-605.099c-115.499 0-209.323 93.867-209.323 209.451v605.099c0 115.584 93.824 209.451 209.323 209.451h605.099c29.227 0 58.325-5.888 85.205-18.176 6.528-2.901 11.605-9.387 13.099-16.725 1.365-8.021-0.725-15.275-6.528-21.077l-35.755-35.627c-6.4-6.571-15.232-8.747-23.253-5.845-10.923 2.944-21.845 4.395-32.768 4.395h-605.099c-63.744 0-116.267-52.437-116.267-116.395v-605.099c0-64 52.523-116.395 116.267-116.395h605.099c64 0 116.48 52.395 116.48 116.395v224.853c0 5.717 2.176 11.563 6.4 15.872l46.677 46.635c7.253 7.253 16.725 8.661 25.344 5.077 8.747-3.584 14.677-11.563 14.677-21.077v-271.36zM1102.891 702.379l-533.803-539.563h-124.16v131.584l533.632 539.563zM1146.752 746.197l-124.245 131.627 63.232 63.104c25.387 25.387 67.755 25.387 93.227 0l30.891-38.315c25.387-25.429 25.387-67.925 0-93.269l-63.104-63.147z" horiz-adv-x="1229" />
<glyph unicode="&#xe627;" d="M79.147 252.757v-237.739h237.739l475.563 475.563-237.696 237.739-475.605-475.563zM286.677 88.149h-61.184v73.173h-73.173v61.184l52.011 52.011 134.315-134.315-51.968-52.053zM597.589 618.752c8.32-8.32 8.32-21.845 0-30.165l-298.667-298.667c-4.181-4.181-9.685-6.229-15.104-6.229-5.504 0-10.923 2.091-15.061 6.229-8.32 8.32-8.32 21.845 0 30.165l298.667 298.667c8.32 8.32 21.803 8.32 30.165 0zM923.989 725.504l-134.315 133.76c-13.653 13.739-32.597 21.76-52.011 21.76s-38.357-8.021-51.413-21.76l-94.933-94.336 237.739-237.739 94.933 94.848c13.184 13.184 21.163 32.085 21.163 51.499 0 19.371-7.979 38.229-21.163 51.968z" />
<glyph unicode="&#xe628;" d="M1098.752 617.941l-539.264-169.472c-2.005-0.469-3.371-0.469-4.821-0.469-1.536 0-2.859 0-4.864 0.512l-313.941 99.157c-27.349-21.675-46.72-74.624-50.517-139.605 18.261-10.624 30.336-29.824 30.336-52.48 0-21.675-11.136-40.491-27.861-51.541l27.861-208.469c0.427-4.309-0.939-8.661-3.925-12.032-2.816-3.371-7.211-5.291-11.563-5.291h-92.416c-4.352 0-8.661 1.92-11.52 5.291s-4.395 7.723-3.797 12.032l27.861 208.469c-16.896 11.051-27.861 29.867-27.861 51.541 0 23.083 13.013 42.837 31.232 53.419 2.859 56.32 17.323 116.992 47.104 158.933l-160.213 50.005c-6.229 2.432-10.581 8.235-10.581 14.976 0 6.656 4.352 12.501 10.581 14.891l539.221 169.472c2.005 0.469 3.328 0.469 4.864 0.469 1.451 0 2.816 0 4.821-0.512l539.264-169.472c6.187-2.347 10.581-8.192 10.581-14.848 0-6.741-4.395-12.544-10.581-14.976zM862.891 324.736c3.797-67.883-138.283-123.264-308.224-123.264s-311.979 55.381-308.224 123.264l8.661 152.149 276.395-87.168c7.68-2.432 15.403-3.328 23.168-3.328 7.723 0 15.403 0.939 23.168 3.328l276.352 87.168 8.704-152.149z" horiz-adv-x="1127" />
<glyph unicode="&#xe629;" d="M891.776 589.44c-81.749-56.661-163.968-113.109-245.163-170.283-34.091-23.595-91.691-71.723-134.144-71.723h-0.981c-42.496 0-100.053 48.128-134.144 71.723-81.195 57.173-163.413 113.621-244.565 170.283-37.205 25.173-90.112 84.395-90.112 132.053 0 51.285 27.733 95.275 83.797 95.275h770.987c45.611 0.043 83.883-37.717 83.883-83.755 0-58.752-43.563-111.573-89.557-143.573zM981.333 163.072c0-46.123-37.76-83.883-83.883-83.883h-770.987c-46.037 0-83.797 37.76-83.797 83.883v415.872c15.744-17.237 33.493-32.427 52.907-45.568 86.869-59.221 174.933-118.357 260.309-180.651 43.989-32.512 98.475-72.32 155.605-72.32h1.024c57.088 0 111.616 39.851 155.648 72.32 85.376 61.781 173.312 121.472 260.779 180.651 18.901 13.184 36.651 28.331 52.395 45.568v-415.872z" />
<glyph unicode="&#xe62a;" d="M254.507-40.96v977.963c0 24.576 14.080 30.379 31.403 13.013l470.571-470.528c17.323-17.365 17.323-45.483 0-62.891l-470.528-470.613c-17.365-17.323-31.445-11.52-31.445 13.056z" />
<glyph unicode="&#xe62b;" d="M1020.672 933.675c-4.309 10.411-12.629 18.731-23.040 23.040-5.248 2.176-10.795 3.285-16.427 3.285h-392.149c-23.552 0-42.667-19.115-42.667-42.667 0-23.595 19.115-42.667 42.667-42.667h289.195l-489.984-490.027c-16.683-16.683-16.683-43.648 0-60.331 16.725-16.683 43.648-16.725 60.331 0l490.027 490.027v-289.195c0-23.595 19.115-42.667 42.667-42.667 11.776 0 22.443 4.736 30.165 12.501 7.765 7.723 12.501 18.389 12.501 30.165l0.043 392.107c-0.043 5.632-1.152 11.179-3.328 16.427zM736.341 505.301c20.096-43.477 31.659-91.691 31.659-142.635 0-188.203-153.131-341.333-341.333-341.333s-341.333 153.131-341.333 341.333 153.131 341.333 341.333 341.333c50.987 0 99.2-11.563 142.72-31.659l63.531 63.531c-61.184 33.963-131.456 53.461-206.251 53.461-235.264 0-426.667-191.403-426.667-426.667s191.403-426.667 426.667-426.667c235.264 0 426.667 191.403 426.667 426.667 0 74.795-19.456 145.024-53.419 206.208l-63.573-63.573z" />
<glyph unicode="&#xe62c;" d="M758.955 765.824h-89.771c-70.315 0-83.413-33.749-83.413-82.347v-108.032h167.467l-22.272-169.173h-145.152v-433.877h-174.933v433.92h-145.792v169.131h145.792v124.629c0 144.64 88.576 223.488 217.728 223.488 61.739 0 114.901-4.565 130.347-6.869v-150.869z" />
<glyph unicode="&#xe62d;" d="M0 131.84v591.317c0 37.76 13.568 70.229 40.619 97.323 27.136 27.136 59.563 40.704 97.323 40.704h197.12c37.76 0 70.229-13.568 97.323-40.704 27.136-27.093 40.661-59.563 40.661-97.323v-19.669h413.995c37.76 0 70.187-13.568 97.323-40.704 27.093-27.093 40.661-59.563 40.661-97.323v-433.621c0-37.76-13.568-70.187-40.661-97.323-27.136-27.093-59.563-40.619-97.323-40.619h-749.099c-37.76 0-70.187 13.568-97.323 40.619-27.051 27.093-40.619 59.52-40.619 97.323z" />
<glyph unicode="&#xe62e;" d="M1019.264 937.216c-7.381 13.995-21.931 22.784-37.76 22.784h-938.667c-15.787 0-30.336-8.789-37.717-22.784-7.381-14.037-6.357-30.976 2.603-44.032l420.096-611.072c-0.213-1.621-0.981-3.072-0.981-4.736v-298.667c0-23.595 19.072-42.667 42.667-42.667h85.333c23.595 0 42.667 19.072 42.667 42.667v298.667c0 1.664-0.768 3.115-0.981 4.736l420.139 611.072c8.96 13.013 9.941 29.995 2.603 44.032zM695.040 576h-365.739l-205.355 298.667h776.405l-205.312-298.667z" />
<glyph unicode="&#xe62f;" d="M814.379 923.563l-78.293-50.304h-75.477c53.717-45.184 86.315-95.445 86.315-167.509 0-148.053-135.467-164.608-135.467-237.227 0-75.477 176.64-100.608 176.64-261.803 0-34.859-10.283-69.163-27.989-98.901-58.283-100.011-181.205-135.467-290.389-135.467-85.76 0-191.488 22.272-239.488 102.357-13.739 22.272-20.565 48.597-20.565 74.88 0 64.597 40.021 118.357 93.184 151.467 66.859 41.771 153.728 52.053 230.912 57.173-20.565 26.283-36.011 49.749-36.011 84.053 0 18.304 4.565 32.597 11.989 48.597-13.184-1.152-25.685-2.304-38.869-2.304-111.445 0-200.619 81.152-200.619 194.901 0 62.891 29.184 124.629 77.184 165.803 61.184 53.12 149.163 74.283 228.651 74.283h238.293zM574.891 322.261c-9.131 1.109-18.304 1.109-27.989 1.109-92.587 0-230.912-29.696-230.912-147.456 0-111.445 119.979-151.509 213.205-151.509 84.608 0 177.749 35.456 177.749 133.803-0.043 77.184-76.629 124.032-132.053 164.053zM487.979 876.715c-32.043 0-65.152-16-85.205-41.173-19.968-25.728-26.24-59.435-26.24-91.477 0-85.76 48.597-220.629 151.467-220.629 27.989 0 62.293 13.696 81.749 34.304 23.979 25.173 30.293 57.173 30.293 90.88 0 84.651-49.152 228.096-152.064 228.096z" />
<glyph unicode="&#xe630;" d="M374.912 655.488c39.339 26.027 86.4 41.387 137.088 41.387 43.947 0 84.651-12.373 120.491-32.384l189.952 189.952c-86.187 65.963-193.579 105.557-310.443 105.557-123.435 0-236.672-43.733-325.12-116.48l188.032-188.032zM708.224 599.467c32.512-42.069 52.651-94.165 52.651-151.467 0-137.472-111.445-248.875-248.875-248.875-54.016 0-103.637 17.621-144.427 46.891l-187.435-187.435c89.387-76.288 205.141-122.581 331.861-122.581 282.752 0 512 229.248 512 512 0 129.963-48.853 248.277-128.64 338.603l-187.136-187.136zM299.989 319.189c-22.955 37.675-36.864 81.493-36.864 128.811 0 50.731 15.36 97.749 41.387 137.088l-188.032 188.032c-72.747-88.448-116.48-201.685-116.48-325.12 0-120.149 41.685-230.443 111.019-317.781l188.971 188.971z" />
<glyph unicode="&#xe631;" d="M933.248 389.333c-2.816-3.413-7.424-5.76-11.989-6.315-0.555 0-1.109 0-1.664 0-4.565 0-8.576 1.109-11.989 4.011l-395.605 329.856-395.605-329.856c-4.011-2.859-8.533-4.523-13.653-4.011-4.565 0.555-9.173 2.859-11.989 6.315l-35.499 42.283c-6.229 7.467-5.077 19.456 2.347 25.685l411.008 342.4c23.979 20.011 62.848 20.011 86.827 0l139.52-116.565v111.445c0 10.325 8.021 18.347 18.304 18.347h109.739c10.283 0 18.304-8.021 18.304-18.347v-233.216l125.184-104.021c7.424-6.229 8.576-18.261 2.347-25.685l-35.584-42.325zM841.259 117.845c0-20.011-16.597-36.565-36.565-36.565h-219.52v219.477h-146.347v-219.477h-219.477c-20.011 0-36.565 16.597-36.565 36.565v274.347c0 1.152 0.597 2.347 0.597 3.456l328.619 270.933 328.661-270.976c0.597-1.109 0.597-2.304 0.597-3.456v-274.304z" />
<glyph unicode="&#xe632;" d="M745.771 477.739c-39.467-43.435-91.477-104.619-96.043-165.76 16.597-9.728 26.88-28.032 26.88-46.891 0-13.696-5.12-26.88-14.293-36.565 9.173-9.728 14.293-22.869 14.293-36.608 0-18.859-9.685-36.011-25.685-46.293 4.565-8.021 7.424-17.707 7.424-26.88 0-37.163-29.184-54.869-62.336-54.869-14.848-33.152-48-54.869-84.011-54.869s-69.163 21.717-84.011 54.869c-33.152 0-62.336 17.707-62.336 54.869 0 9.131 2.816 18.859 7.424 26.88-16 10.283-25.685 27.435-25.685 46.293 0 13.696 5.12 26.88 14.293 36.608-9.173 9.728-14.293 22.869-14.293 36.565 0 18.859 10.283 37.163 26.88 46.891-4.565 61.184-56.576 122.325-96.043 165.76s-58.88 94.293-58.88 153.173c0 155.477 148.053 256.085 292.651 256.085 144.64 0 292.651-100.608 292.651-256.085 0-58.88-19.413-109.739-58.88-153.173zM512 813.824c-103.467 0-219.52-68.565-219.52-182.912 0-36.565 14.848-74.88 38.869-102.912 10.88-12.544 23.467-24.576 34.859-37.717 40.576-48.597 74.88-105.771 80.597-170.325h130.347c5.717 64.597 40.021 121.771 80.597 170.325 11.435 13.141 23.979 25.173 34.859 37.717 24.021 28.032 38.869 66.304 38.869 102.912 0 114.347-116.011 182.912-219.477 182.912zM621.739 612.608c-9.728 0-18.304 8.576-18.304 18.304 0 39.424-61.184 54.869-91.477 54.869-9.728 0-18.304 8.576-18.304 18.304s8.619 18.304 18.347 18.304c53.163 0 128.043-27.989 128.043-91.477 0-9.685-8.576-18.304-18.304-18.304z" />
<glyph unicode="&#xe633;" d="M648.405 576.768l-213.205-105.301v94.848c0 10.453-7.68 15.147-17.152 10.453l-290.048-143.232v-288.939c0-20.949 17.152-37.931 38.4-37.931h691.2c21.248 0 38.4 16.981 38.4 37.931v421.717c0 10.453-7.723 15.104-17.152 10.453l-213.205-105.301v94.848c0 10.453-7.723 15.104-17.237 10.453zM588.8 357.675l-153.6-75.861v104.832l153.643 75.819-0.043-104.789zM204.843 386.603l153.6 75.819-0.043-104.789-153.557-75.861v104.832zM665.643 281.771v104.832l153.557 75.819v-104.789l-153.557-75.861zM292.779 552.832l-11.136 236.501h-115.243l-15.104-306.347z" />
<glyph unicode="&#xe634;" d="M694.912 82.176c0-20.011-16.597-36.565-36.565-36.565h-292.693c-20.011 0-36.565 16.597-36.565 36.565v73.173c0 20.011 16.597 36.565 36.565 36.565h36.565v219.52h-36.565c-20.011 0-36.565 16.597-36.565 36.565v73.173c0 20.011 16.597 36.608 36.565 36.608h219.477c20.011 0 36.608-16.597 36.608-36.608v-329.259h36.565c20.011 0 36.565-16.597 36.565-36.565v-73.173zM621.739 704.085c0-20.011-16.597-36.608-36.608-36.608h-146.347c-20.011 0-36.608 16.597-36.608 36.608v109.739c0 20.011 16.597 36.565 36.608 36.565h146.347c20.011 0 36.608-16.597 36.608-36.565v-109.739z" />
<glyph unicode="&#xe635;" d="M512 9.003c-242.389 0-438.997 196.608-438.997 438.997s196.608 438.997 438.997 438.997c242.389 0 438.997-196.608 438.997-438.997s-196.608-438.997-438.997-438.997zM658.347 265.088c0 10.283-8.021 18.304-18.304 18.304h-54.869v292.651c0 10.283-8.021 18.304-18.304 18.304h-182.912c-10.283 0-18.304-8.021-18.304-18.304v-91.477c0-10.283 8.021-18.304 18.304-18.304h54.869v-182.912h-54.869c-10.283 0-18.304-8.021-18.304-18.304v-91.477c0-10.283 8.021-18.304 18.304-18.304h256.085c10.283 0 18.304 8.021 18.304 18.304v91.52zM585.173 777.259c0 10.283-8.021 18.304-18.304 18.304h-109.739c-10.283 0-18.304-7.979-18.304-18.304v-91.477c0-10.283 8.021-18.304 18.304-18.304h109.739c10.283 0 18.304 8.021 18.304 18.304v91.477z" />
<glyph unicode="&#xe636;" d="M889.557 893.781c38.613 0 70.016-31.403 70.016-70.016v-755.115c0-38.613-31.403-70.016-70.016-70.016h-755.115c-38.613 0-70.016 31.403-70.016 70.016v755.115c0 38.613 31.403 70.016 70.016 70.016h755.115zM889.557 960h-755.115c-74.923 0-136.235-61.312-136.235-136.235v-755.115c0-74.923 61.312-136.235 136.235-136.235h755.115c74.923 0 136.235 61.312 136.235 136.235v755.115c0 74.923-61.312 136.235-136.235 136.235v0zM282.411 446.208v51.029c0 6.912 2.517 12.885 7.552 17.963 5.035 5.035 11.008 7.552 17.92 7.552s12.885-2.517 17.92-7.552c5.035-5.077 7.595-11.051 7.595-17.963v-51.029c0-49.152 17.451-91.221 52.437-126.165 34.944-34.944 77.013-52.395 126.165-52.395s91.221 17.451 126.165 52.395c34.944 34.944 52.437 77.013 52.437 126.165v51.029c0 6.912 2.517 12.885 7.595 17.963 5.035 5.035 11.008 7.552 17.92 7.552s12.885-2.517 17.92-7.552c5.035-5.077 7.552-11.051 7.552-17.963v-51.029c0-58.752-19.584-109.824-58.795-153.259s-87.637-68.352-145.28-74.752v-52.608h102.059c6.912 0 12.885-2.517 17.92-7.595 5.035-5.035 7.552-11.008 7.552-17.92s-2.517-12.885-7.552-17.963c-5.035-5.035-11.051-7.552-17.92-7.552h-255.147c-6.912 0-12.885 2.517-17.92 7.552-5.035 5.077-7.595 11.008-7.595 17.963s2.517 12.885 7.595 17.92c5.035 5.077 11.008 7.595 17.92 7.595h102.059v52.608c-57.685 6.4-106.112 31.317-145.28 74.752-39.211 43.435-58.795 94.507-58.795 153.259zM384.427 446.208v204.075c0 35.072 12.501 65.109 37.461 90.069 25.003 25.003 55.040 37.504 90.112 37.504s65.109-12.501 90.112-37.461c24.96-24.96 37.461-54.997 37.461-90.069v-204.075c0-35.072-12.501-65.109-37.461-90.112-25.003-24.96-54.997-37.461-90.112-37.461-35.072 0-65.109 12.501-90.069 37.461-25.003 24.96-37.504 54.997-37.504 90.069z" />
<glyph unicode="&#xe637;" d="M42.667 405.333v-298.667c0-47.104 38.187-85.333 85.333-85.333h768c47.104 0 85.333 38.229 85.333 85.333v298.667l-469.333-234.667-469.333 234.667zM938.667 704h-170.667v149.333c-83.285 13.952-168.747 21.333-256 21.333s-172.715-7.381-256-21.333v-149.333h-170.667c-47.147 0-85.333-38.229-85.333-85.333v-128l512-256 512 256v128c0 47.104-38.229 85.333-85.333 85.333zM512 320l-128 64v64h256v-64l-128-64zM682.667 704h-341.333v85.333h341.333v-85.333z" />
<glyph unicode="&#xe638;" d="M1007.744 525.696c-13.056 46.72-33.237 94.421-62.208 140.373-58.453 90.667-154.837 173.099-279.296 210.901-123.179 38.229-272.811 28.587-401.408-44.331-127.616-71.168-231.979-205.525-257.493-365.611-13.013-79.189-9.344-163.243 15.787-242.731 25.003-79.403 69.376-154.112 129.493-214.784 0 0 0.043 0.043 0.085 0.043v0c8.32-8.32 19.243-12.501 30.165-12.501s21.845 4.181 30.165 12.501l341.504 341.504c16.683 16.683 16.683 43.691 0 60.331-16.683 16.683-43.648 16.683-60.331 0l-61.397-61.44c-5.291 15.275-7.296 31.531-5.333 47.403 3.328 30.251 22.613 56.192 46.379 71.723 23.979 15.531 53.675 20.096 79.915 14.635 26.24-5.376 49.237-19.84 65.323-38.485 15.061-19.157 24.277-40.875 28.117-61.653 1.067-10.283 2.005-20.48 1.749-29.824-1.451-9.045-1.067-18.432-3.2-26.069-2.176-7.637-3.883-14.891-5.205-21.504-2.091-6.187-4.437-11.349-5.675-16.085-2.773-9.429-3.243-16.171-0.341-19.029 2.859-2.859 8.917-1.707 18.475 4.011 4.693 2.901 10.667 6.699 16.683 12.203 5.333 6.016 11.307 13.355 17.792 22.101 6.357 8.789 10.283 20.181 15.957 32.469 4.267 12.544 7.125 27.179 9.131 42.965 2.133 31.872-4.352 69.803-25.003 106.752-21.376 36.053-58.496 69.163-107.179 85.333-48.299 16.213-107.904 13.909-160.213-14.464-51.584-27.733-95.147-81.408-105.643-146.432-9.003-50.731 2.261-106.667 31.744-152.533l-28.203-28.16c-38.741 55.125-54.869 123.691-44.331 187.563 11.008 77.696 60.416 144.256 122.325 181.589 62.123 37.845 137.003 46.123 200.704 29.611 64.213-16.085 116.779-55.637 151.381-101.589 16.939-23.253 29.781-47.915 39.083-72.619 8.235-25.045 13.909-49.664 15.701-73.301 4.352-47.36-4.181-89.003-14.549-121.813-21.845-66.091-50.987-97.28-43.733-103.893 3.669-4.651 45.696 15.147 85.376 85.589 18.901 34.901 36.523 82.816 38.187 141.312 1.28 29.184-2.304 60.544-9.728 93.269-8.576 32.427-22.187 65.707-41.899 97.792-39.893 63.317-106.411 121.429-193.152 148.437-85.888 27.307-190.677 21.248-281.045-29.525-89.728-49.536-163.285-143.701-181.547-256.256-9.301-55.68-6.699-114.731 10.88-170.667 13.312-42.581 34.731-83.2 62.848-119.083l-27.477-27.435c-32.512 40.533-57.387 86.272-73.003 134.656-20.011 61.696-23.253 127.36-13.867 189.397 18.347 125.269 98.475 232.021 198.272 290.987 100.309 59.989 219.989 71.851 321.109 44.416 101.973-26.88 184.277-90.752 237.483-164.053 26.155-37.12 45.611-76.245 59.435-115.243 12.075-39.424 20.139-78.080 22.059-114.901 4.992-73.813-9.984-137.856-27.733-187.52-37.163-100.267-84.224-144.128-76.075-151.253 2.773-4.181 62.72 28.331 117.717 132.907 26.283 51.84 50.389 122.197 51.413 207.104 1.067 42.453-4.779 87.808-16.171 134.912z" />
<glyph unicode="&#xe639;" d="M45.611 228.48c0 43.989 16.597 85.163 48 116.608l118.912 118.869c30.848 30.933 73.173 48.043 116.565 48.043 45.184 0 87.509-18.261 118.912-50.304l50.347 50.304c-32.085 31.445-50.347 74.325-50.347 119.509 0 43.435 16.597 85.163 47.403 116.053l117.76 118.272c30.933 31.445 72.576 48.597 116.651 48.597 43.392 0 85.163-16.555 116.011-47.403l84.011-83.456c30.933-30.293 48.597-72.576 48.597-116.053 0-43.989-16.512-85.163-48-116.608l-118.827-118.869c-30.933-30.891-73.173-48-116.651-48-45.184 0-87.424 18.261-118.912 50.304l-50.261-50.347c32-31.445 50.261-74.325 50.261-119.509 0-43.435-16.512-85.163-47.403-116.053l-117.76-118.272c-30.848-31.445-72.576-48.597-116.565-48.597-43.435 0-85.163 16.555-116.096 47.403l-84.011 83.456c-30.848 30.336-48.597 72.619-48.597 116.053zM557.184 631.509c0-17.152 6.827-30.293 18.816-41.728 18.901 18.859 34.901 41.173 64.085 41.173 30.251 0 54.827-24.576 54.827-54.869 0-29.184-22.229-45.184-41.173-64.043 11.52-11.989 24.576-17.707 41.173-17.707 14.336 0 28.587 5.163 38.912 15.445l118.827 118.869c10.325 10.283 16 23.979 16 38.869 0 14.293-5.675 27.989-16 38.315l-84.011 83.456c-10.24 9.728-24.576 15.403-38.827 15.403-14.336 0-28.587-5.717-38.912-16l-117.76-118.272c-10.197-10.325-15.957-24.619-15.957-38.912zM155.349 228.48c0-14.293 5.76-27.989 16-38.272l84.011-83.456c10.325-9.728 24.576-14.891 38.912-14.891 14.251 0 28.587 5.163 38.827 15.445l117.76 118.272c10.325 10.283 16 24.576 16 38.869 0 17.152-6.827 30.293-18.816 41.771-18.816-18.859-34.816-41.173-64-41.173-30.336 0-54.912 24.576-54.912 54.869 0 29.184 22.315 45.184 41.173 64.043-11.435 11.989-24.576 18.261-41.173 18.261-14.251 0-28.587-5.717-38.827-16l-118.912-118.869c-10.283-10.283-16.043-23.979-16.043-38.869z" />
<glyph unicode="&#xe63a;" d="M178.176 672.085h-1.152c-63.445 0-104.021 43.392-104.021 97.749 0 55.424 42.283 97.749 106.325 97.749 64.597 0 104.576-42.325 105.173-97.749 0.597-54.357-40.576-97.749-106.325-97.749zM272.512 28.416h-188.629v566.485h188.629v-566.485zM950.997 28.416h-188.032v302.976c0 76.032-27.477 128.043-95.445 128.043-52.053 0-82.901-34.816-96.64-68.565-4.565-12.587-6.315-29.141-6.315-46.293v-316.117h-188.032c2.304 513.323 0 566.485 0 566.485h188.032v-82.347h-1.109c24.576 38.869 69.163 95.445 170.923 95.445 124.032 0 216.619-81.152 216.619-254.933v-324.693z" />
<glyph unicode="&#xe63b;" d="M858.837 704.341h-512c-23.595 0-42.667 19.072-42.667 42.667s19.072 42.667 42.667 42.667h512c23.595 0 42.667-19.072 42.667-42.667s-19.072-42.667-42.667-42.667zM858.837 405.675h-512c-23.595 0-42.667 19.072-42.667 42.667s19.072 42.667 42.667 42.667h512c23.595 0 42.667-19.072 42.667-42.667s-19.072-42.667-42.667-42.667zM858.837 107.008h-512c-23.595 0-42.667 19.072-42.667 42.667s19.072 42.667 42.667 42.667h512c23.595 0 42.667-19.072 42.667-42.667s-19.072-42.667-42.667-42.667zM176.171 693.675c-14.080 0-27.691 5.547-37.547 15.787-10.24 9.856-15.787 23.467-15.787 37.547s5.547 27.733 15.36 37.547c20.053 20.096 55.467 20.096 75.52 0.469 10.24-10.24 15.787-23.936 15.787-38.016s-5.547-27.691-15.787-37.547c-9.813-10.24-23.893-15.787-37.547-15.787zM176.171 395.008c-14.080 0-27.691 5.547-37.547 15.36-10.24 10.24-15.787 23.851-15.787 37.973s5.547 27.733 15.36 37.547c20.053 20.096 55.467 20.096 75.52 0.469 10.24-10.24 15.787-23.936 15.787-38.016s-5.547-27.691-15.787-37.547c-9.813-10.24-23.467-15.787-37.547-15.787zM176.171 96.341c-14.080 0-27.691 5.547-37.973 15.787-9.813 9.813-15.36 23.467-15.36 37.547s5.547 27.733 15.36 38.016c20.053 19.627 55.467 19.627 75.52 0 10.24-10.24 15.787-23.893 15.787-38.016 0-14.080-5.547-27.691-15.787-37.547-9.813-10.24-23.467-15.787-37.547-15.787z" />
<glyph unicode="&#xe63c;" d="M109.739 630.912c-60.587 0-109.739 49.152-109.739 109.739s49.152 109.739 109.739 109.739c60.587 0 109.739-49.152 109.739-109.739s-49.152-109.739-109.739-109.739zM109.739 338.261c-60.587 0-109.739 49.152-109.739 109.739s49.152 109.739 109.739 109.739c60.587 0 109.739-49.152 109.739-109.739s-49.152-109.739-109.739-109.739zM109.739 45.568c-60.587 0-109.739 49.195-109.739 109.781s49.152 109.739 109.739 109.739c60.587 0 109.739-49.152 109.739-109.739s-49.152-109.781-109.739-109.781zM1024.341 685.781c0-9.728-8.576-18.304-18.304-18.304h-695.083c-9.728 0-18.304 8.576-18.304 18.304v109.739c0 9.685 8.576 18.304 18.304 18.304h695.083c9.728 0 18.304-8.576 18.304-18.304v-109.739zM1024.341 393.131c0-9.728-8.576-18.304-18.304-18.304h-695.083c-9.728 0-18.304 8.576-18.304 18.304v109.739c0 9.728 8.576 18.304 18.304 18.304h695.083c9.728 0 18.304-8.576 18.304-18.304v-109.739zM1024.341 100.437c0-9.685-8.576-18.304-18.304-18.304h-695.083c-9.728 0-18.304 8.576-18.304 18.304v109.739c0 9.728 8.576 18.304 18.304 18.304h695.083c9.728 0 18.304-8.576 18.304-18.304v-109.739z" />
<glyph unicode="&#xe63d;" d="M544.64 65.579c-6.272-12.587-18.859-20.011-32.597-20.011-2.859 0-5.717 0.555-8.576 1.109-16.597 4.011-27.989 18.304-27.989 35.456v329.259h-329.259c-17.152 0-31.445 11.435-35.456 27.989-4.011 16.597 4.011 33.707 18.859 41.173l731.648 365.824c5.163 2.816 10.88 4.011 16.597 4.011 9.685 0 18.859-3.456 25.685-10.88 11.477-10.88 14.293-28.032 6.869-42.283l-365.781-731.648z" />
<glyph unicode="&#xe63e;" d="M785.963 491.989l-208.043-442.411c-11.989-25.173-38.315-40.576-65.749-40.576s-53.76 15.403-65.152 40.576l-208.64 442.411c-14.891 31.488-18.901 67.456-18.901 102.357 0 161.749 130.901 292.651 292.651 292.651s292.651-130.901 292.651-292.651c0.043-34.901-3.925-70.869-18.816-102.357zM512.171 740.651c-80.597 0-146.347-65.749-146.347-146.347s65.749-146.304 146.347-146.304 146.347 65.749 146.347 146.347-65.749 146.304-146.347 146.304z" />
<glyph unicode="&#xe63f;" d="M411.435 82.176h-182.955c-90.923 0-164.651 73.771-164.651 164.608v402.432c0 90.88 73.728 164.608 164.651 164.608h182.912c9.643 0 18.261-8.576 18.261-18.304 0-16 7.424-54.869-18.261-54.869h-182.912c-50.347 0-91.52-41.173-91.52-91.477v-402.432c0-50.304 41.173-91.477 91.52-91.477h164.565c14.336 0 36.565 2.859 36.565-18.304 0.043-15.915 7.467-54.784-18.176-54.784zM949.248 422.315l-310.912-310.955c-6.912-6.869-16-10.88-25.771-10.88-20.011 0-36.565 16.597-36.565 36.565v164.608h-256.085c-20.011 0-36.565 16.597-36.565 36.565v219.52c0 20.011 16.597 36.565 36.565 36.565h256.085v164.651c0 20.011 16.597 36.565 36.565 36.565 9.771 0 18.816-4.011 25.771-10.88l310.912-310.955c6.912-6.827 10.923-16 10.923-25.685s-4.011-18.859-10.923-25.685z" />
<glyph unicode="&#xe640;" d="M128 704h768c23.595 0 42.667 19.072 42.667 42.667s-19.072 42.667-42.667 42.667h-768c-23.595 0-42.667-19.072-42.667-42.667s19.072-42.667 42.667-42.667zM896 490.667h-768c-23.595 0-42.667-19.072-42.667-42.667s19.072-42.667 42.667-42.667h768c23.595 0 42.667 19.072 42.667 42.667s-19.072 42.667-42.667 42.667zM896 192h-768c-23.595 0-42.667-19.072-42.667-42.667s19.072-42.667 42.667-42.667h768c23.595 0 42.667 19.072 42.667 42.667s-19.072 42.667-42.667 42.667z" />
<glyph unicode="&#xe641;" d="M950.997 704.085c0-20.011-16.597-36.608-36.608-36.608h-804.821c-20.011 0-36.565 16.597-36.565 36.608v73.173c0 20.011 16.597 36.565 36.565 36.565h804.821c20.011 0 36.608-16.597 36.608-36.565v-73.173zM950.997 411.435c0-20.011-16.597-36.565-36.608-36.565h-804.821c-20.011 0-36.565 16.597-36.565 36.565v73.173c0 20.011 16.597 36.565 36.565 36.565h804.821c20.011 0 36.608-16.597 36.608-36.565v-73.173zM950.997 118.741c0-20.011-16.597-36.565-36.608-36.565h-804.821c-20.011 0-36.565 16.597-36.565 36.565v73.173c0 20.011 16.597 36.608 36.565 36.608h804.821c20.011 0 36.608-16.597 36.608-36.608v-73.173z" />
<glyph unicode="&#xe642;" d="M768 106.667c0-46.635-38.656-85.333-85.333-85.333h-341.333c-46.677 0-85.333 38.699-85.333 85.333v682.667c0 46.635 38.656 85.333 85.333 85.333h341.333c46.677 0 85.333-38.699 85.333-85.333v-682.667zM703.957 682.667c0 11.307-9.984 21.291-21.291 21.291h-341.333c-11.307 0-21.291-9.984-21.291-21.291v-469.333c0-11.307 9.984-21.333 21.291-21.333h341.333c11.307 0 21.291 9.984 21.291 21.333v469.333zM565.376 789.333h-106.752c-5.973 0-10.624-4.651-10.624-10.667s4.651-10.667 10.624-10.667h106.752c5.973 0 10.624 4.651 10.624 10.667s-4.651 10.667-10.624 10.667zM512 160c-29.355 0-53.376-24.021-53.376-53.333 0-29.355 24.021-53.333 53.376-53.333 29.312 0 53.376 23.979 53.376 53.333s-24.064 53.333-53.376 53.333z" />
<glyph unicode="&#xe643;" d="M512 960c-282.325 0-512-229.675-512-512s229.675-512 512-512c282.325 0 512 229.675 512 512s-229.675 512-512 512zM512 21.333c-235.264 0-426.667 191.403-426.667 426.667s191.403 426.667 426.667 426.667c235.264 0 426.667-191.403 426.667-426.667s-191.403-426.667-426.667-426.667zM384 448c0-35.346-28.654-64-64-64s-64 28.654-64 64c0 35.346 28.654 64 64 64s64-28.654 64-64zM576 448c0-35.346-28.654-64-64-64s-64 28.654-64 64c0 35.346 28.654 64 64 64s64-28.654 64-64zM768 448c0-35.346-28.654-64-64-64s-64 28.654-64 64c0 35.346 28.654 64 64 64s64-28.654 64-64z" />
<glyph unicode="&#xe644;" d="M384 832c0-35.346-28.654-64-64-64s-64 28.654-64 64c0 35.346 28.654 64 64 64s64-28.654 64-64zM576 832c0-35.346-28.654-64-64-64s-64 28.654-64 64c0 35.346 28.654 64 64 64s64-28.654 64-64zM384 448c0-35.346-28.654-64-64-64s-64 28.654-64 64c0 35.346 28.654 64 64 64s64-28.654 64-64zM576 448c0-35.346-28.654-64-64-64s-64 28.654-64 64c0 35.346 28.654 64 64 64s64-28.654 64-64zM384 640c0-35.346-28.654-64-64-64s-64 28.654-64 64c0 35.346 28.654 64 64 64s64-28.654 64-64zM576 640c0-35.346-28.654-64-64-64s-64 28.654-64 64c0 35.346 28.654 64 64 64s64-28.654 64-64zM384 256c0-35.346-28.654-64-64-64s-64 28.654-64 64c0 35.346 28.654 64 64 64s64-28.654 64-64zM576 256c0-35.346-28.654-64-64-64s-64 28.654-64 64c0 35.346 28.654 64 64 64s64-28.654 64-64zM384 64c0-35.346-28.654-64-64-64s-64 28.654-64 64c0 35.346 28.654 64 64 64s64-28.654 64-64zM576 64c0-35.346-28.654-64-64-64s-64 28.654-64 64c0 35.346 28.654 64 64 64s64-28.654 64-64zM768 832c0-35.346-28.654-64-64-64s-64 28.654-64 64c0 35.346 28.654 64 64 64s64-28.654 64-64zM768 448c0-35.346-28.654-64-64-64s-64 28.654-64 64c0 35.346 28.654 64 64 64s64-28.654 64-64zM768 640c0-35.346-28.654-64-64-64s-64 28.654-64 64c0 35.346 28.654 64 64 64s64-28.654 64-64zM768 256c0-35.346-28.654-64-64-64s-64 28.654-64 64c0 35.346 28.654 64 64 64s64-28.654 64-64zM768 64c0-35.346-28.654-64-64-64s-64 28.654-64 64c0 35.346 28.654 64 64 64s64-28.654 64-64z" />
<glyph unicode="&#xe645;" d="M298.667 106.667c0 10.923 4.181 21.845 12.501 30.165l311.168 311.168-311.168 311.168c-16.683 16.683-16.683 43.648 0 60.331s43.648 16.683 60.331 0l341.333-341.333c16.683-16.683 16.683-43.648 0-60.331l-341.333-341.333c-16.683-16.683-43.648-16.683-60.331 0-8.32 8.32-12.501 19.243-12.501 30.165z" />
<glyph unicode="&#xe646;" d="M747.691 256.939c10.368 0 18.859 8.491 18.859 18.901v29.995c0 10.368-8.491 18.859-18.859 18.859h-476.843c-10.368 0-18.859-8.491-18.859-18.859v-29.995c0-10.368 8.491-18.901 18.859-18.901h476.843zM744.832 423.637c10.368 0 18.859 8.491 18.859 18.901v29.995c0 10.368-8.491 18.901-18.859 18.901h-473.984c-10.368 0-18.859-8.491-18.859-18.901v-29.995c0-10.368 8.491-18.901 18.859-18.901h473.984zM562.645 590.293c10.368 0 18.901 8.491 18.901 18.859v29.995c0 10.368-8.491 18.901-18.901 18.901h-291.797c-10.368 0-18.859-8.491-18.859-18.901v-29.995c0-10.368 8.491-18.859 18.859-18.859h291.797zM408.448 756.992c10.368 0 18.901 8.491 18.901 18.901v29.952c0 10.368-8.491 18.901-18.901 18.901h-137.6c-10.368 0-18.859-8.491-18.859-18.901v-29.995c0-10.368 8.491-18.901 18.859-18.901h137.6zM747.691 158.037h-476.843c-10.368 0-18.859-8.491-18.859-18.901v-29.995c0-10.368 8.491-18.901 18.859-18.901h476.843c10.368 0 18.859 8.491 18.859 18.901v29.995c0 10.411-8.491 18.901-18.859 18.901zM853.248 801.579v-787.925c0-9.173-7.467-16.597-16.597-16.597h-649.301c-9.173 0-16.597 7.467-16.597 16.597v867.968c0 9.173 7.467 16.597 16.597 16.597h569.173l-61.184 61.184h-507.989c-42.88 0-77.781-34.901-77.781-77.781v-867.968c0-42.88 34.901-77.781 77.781-77.781h649.259c42.88 0 77.781 34.901 77.781 77.781v726.741l-61.141 61.184zM695.705 959.286l218.036-218.036-43.263-43.263-218.036 218.036 43.263 43.263zM621.867 959.445h61.184v-227.883h-61.184v227.883zM621.867 740.565h291.584v-61.184h-246.016c-25.173 0-45.568 20.395-45.568 45.568v15.616z" />
<glyph unicode="&#xe647;" d="M969.429 740.651h-237.739c-22.315 0-50.901-9.728-73.173-22.869v187.52c0 30.293-24.576 54.869-54.912 54.869h-237.781c-30.336 0-72.576-17.707-93.739-38.869l-233.259-233.216c-21.163-21.163-38.827-63.445-38.827-93.739v-384.128c0-30.293 24.576-54.869 54.827-54.869h310.997v-164.608c0-30.293 24.576-54.869 54.827-54.869h548.736c30.336 0 54.912 24.576 54.912 54.869v695.040c0.043 30.293-24.533 54.869-54.869 54.869zM658.517 618.923v-170.923h-170.923l170.923 170.923zM292.651 838.4v-170.923h-170.923l170.923 170.923zM73.173 228.48v365.867h221.653c0.256 0 0.427-0.128 0.683-0.128h213.333c11.733 0 21.333 9.6 21.333 21.333v30.507c0 11.733-9.6 21.333-21.333 21.333h-143.019v73.131h143.019c11.733 0 21.333 9.6 21.333 21.333v30.464c0 11.733-9.6 21.333-21.333 21.333h-143.019v73.344h219.52v-237.781l-128.085-128.085h-289.749c-11.733 0-21.333-9.6-21.333-21.333v-30.507c0-11.733 9.6-21.333 21.333-21.333h221.483c-13.483-22.101-23.168-50.816-23.168-73.131h-198.315c-11.733 0-21.333-9.6-21.333-21.333v-30.507c0-11.733 9.6-21.333 21.333-21.333h198.315v-73.173h-292.651zM951.168 9.003h-512.171v365.824h221.653c0.256 0 0.427-0.128 0.683-0.128h213.333c11.733 0 21.333 9.6 21.333 21.333v30.507c0 11.733-9.6 21.333-21.333 21.333h-143.019v73.131h143.019c11.733 0 21.333 9.6 21.333 21.333v30.507c0 11.733-9.6 21.333-21.333 21.333h-143.019v73.301h219.52v-658.475zM874.667 301.611h-341.333c-11.733 0-21.333-9.6-21.333-21.333v-30.507c0-11.733 9.6-21.333 21.333-21.333h341.333c11.733 0 21.333 9.6 21.333 21.333v30.507c0 11.776-9.6 21.333-21.333 21.333zM874.667 155.349h-341.333c-11.733 0-21.333-9.6-21.333-21.333v-30.507c0-11.733 9.6-21.333 21.333-21.333h341.333c11.733 0 21.333 9.6 21.333 21.333v30.507c0 11.733-9.6 21.333-21.333 21.333z" />
<glyph unicode="&#xe648;" d="M1024 480h-65.621c-15.744 221.483-192.896 398.592-414.379 414.379v65.621h-64v-65.621c-221.483-15.787-398.635-192.896-414.379-414.379h-65.621v-64h65.621c15.744-221.483 192.853-398.592 414.379-414.379v-65.621h64v65.621c221.483 15.787 398.635 192.896 414.379 414.379h65.621v64zM830.379 480h-150.912c-13.056 68.565-66.859 122.411-135.467 135.424v150.955c150.955-15.061 271.317-135.424 286.379-286.379zM480 766.379v-150.955c-68.523-13.013-122.411-66.859-135.467-135.424h-150.912c15.061 150.955 135.424 271.317 286.379 286.379zM193.621 416h150.912c13.056-68.565 66.944-122.411 135.467-135.424v-150.955c-150.955 15.061-271.317 135.424-286.379 286.379zM544 129.621v150.955c68.565 13.013 122.411 66.859 135.467 135.424h150.912c-15.061-150.955-135.424-271.317-286.379-286.379z" />
<glyph unicode="&#xe649;" d="M1012.907 408.533c-105.216-173.184-297.813-289.792-500.736-289.792s-395.52 117.163-500.736 289.792c-6.869 12.032-11.435 25.173-11.435 39.467s4.565 27.435 11.435 39.467c105.216 172.629 297.813 289.792 500.736 289.792s395.52-117.163 500.736-289.792c6.827-12.032 11.435-25.173 11.435-39.467s-4.608-27.435-11.435-39.467zM733.355 649.771c22.869-38.869 34.859-83.456 34.859-128.64 0-141.184-114.859-256.085-256.085-256.085s-256.085 114.859-256.085 256.085c0 45.184 11.989 89.771 34.859 128.64-89.131-45.739-163.456-117.717-217.728-201.771 97.749-150.912 255.488-256.085 438.997-256.085s341.248 105.173 438.997 256.085c-54.315 84.053-128.64 156.032-217.813 201.771zM512.171 694.912c-95.445 0-173.739-78.293-173.739-173.739 0-14.891 12.544-27.392 27.435-27.392s27.435 12.544 27.435 27.392c0 65.152 53.76 118.912 118.912 118.912 14.891 0 27.435 12.544 27.435 27.392-0.085 14.891-12.629 27.435-27.477 27.435z" />
<glyph unicode="&#xe64a;" d="M704.043 768c0-106.027-86.016-288-192-288-106.069 0-192 181.973-192 288s85.931 192 192 192c105.984 0 192-85.973 192-192zM389.12 512l-309.163-150.827c-64.085-41.941-96.171-130.944-71.765-198.784l12.587-34.816c116.992-69.248 253.184-114.091 399.573-127.573l-31.232 512zM944.128 361.173l-309.163 150.827-31.317-512c146.517 13.483 282.667 58.325 399.659 127.573l12.501 34.816c24.491 67.84-7.595 156.8-71.68 198.784zM512.043 448c-11.008 0-21.589 1.92-32 4.608v-484.608l32-32 32 32v484.608c-10.411-2.688-20.992-4.608-32-4.608z" />
<glyph unicode="&#xe64b;" d="M896.811 135.339c-11.989-27.989-43.989-46.251-69.76-60.587-33.664-18.261-68.011-29.184-106.325-29.184-53.163 0-101.163 21.76-149.76 39.509-34.816 12.501-68.565 27.989-100.011 47.403-97.152 59.989-214.315 177.152-274.432 274.347-19.413 31.488-34.816 65.152-47.403 100.096-17.707 48.555-39.381 96.555-39.381 149.76 0 38.229 10.837 72.576 29.184 106.325 14.251 25.685 32.597 57.728 60.587 69.76 18.816 8.491 58.837 17.664 79.403 17.664 4.011 0 8.021 0 11.989-1.664 11.989-4.011 24.576-32 30.336-43.52 18.261-32.597 36.011-65.664 54.827-97.749 9.173-14.848 26.325-33.067 26.325-50.816 0-34.901-103.509-85.76-103.509-116.565 0-15.488 14.336-35.499 22.315-49.152 57.771-104.107 129.749-176.085 233.771-233.856 13.739-8.021 33.749-22.229 49.152-22.229 30.933 0 81.749 103.424 116.565 103.424 17.749 0 36.096-17.152 50.901-26.24 32-18.901 65.152-36.565 97.749-54.912 11.392-5.675 39.424-18.261 43.392-30.251 1.749-4.011 1.749-8.021 1.749-11.989 0.085-20.651-9.045-60.672-17.664-79.573z" />
<glyph unicode="&#xe64c;" d="M1003.691 691.755l-247.936 247.893c-27.008 27.136-72.021 27.136-99.072 0-27.136-27.136-27.136-72.021 0-99.157l-284.971-284.928c-51.157 51.157-159.573 38.784-223.104-24.789-13.525-13.525-13.525-36.053 0-49.621l156.459-156.459-301.739-360.747c-5.035-7.339-4.267-16.64 1.92-22.827l0.427-0.384c6.187-6.229 16.256-6.229 23.211-0.768l350.208 310.656 166.144-166.144c13.568-13.568 36.053-13.568 49.579 0 63.488 63.531 75.904 171.989 24.789 223.147l284.928 284.971c27.093-27.093 72.064-27.093 99.157 0 27.093 27.051 27.093 72.064 0 99.157zM487.040 430.336l-60.373 60.331 298.667 298.667 60.331-60.331-298.624-298.667z" />
<glyph unicode="&#xe64d;" d="M914.432 393.131c0-30.293-24.576-54.869-54.827-54.869h-237.824v-237.781c0-30.293-24.576-54.869-54.827-54.869h-109.739c-30.336 0-54.912 24.576-54.912 54.869v237.781h-237.824c-30.336 0-54.912 24.576-54.912 54.869v109.739c0 30.293 24.576 54.869 54.912 54.869h237.739v237.781c0 30.293 24.576 54.869 54.912 54.869h109.739c30.251 0 54.827-24.576 54.827-54.869v-237.781h237.824c30.251 0 54.827-24.576 54.827-54.869v-109.739z" />
<glyph unicode="&#xe64e;" d="M958.933 487.381l0.384 0.085-266.411 257.621c-19.2 18.56-45.269 30.080-74.027 30.080-35.755 0-67.157-17.749-86.528-44.715-6.656 0.811-13.227 2.048-20.139 2.048s-13.44-1.237-20.139-2.048c-19.371 26.965-50.773 44.715-86.528 44.715-28.8 0-54.827-11.563-74.027-30.080l-0.171 0.085-266.283-257.707 0.384-0.085c-40.064-38.741-65.237-92.885-65.237-153.088 0-117.931 95.531-213.461 213.461-213.461 100.224 0 183.765 69.547 206.549 162.901l14.976 58.197c13.611 29.013 42.88 49.195 77.056 49.195s63.403-20.224 77.056-49.195l14.976-58.197c22.784-93.355 106.325-162.901 206.549-162.901 117.931 0 213.461 95.531 213.461 213.461-0.128 60.203-25.301 114.347-65.365 153.088zM213.632 248.832c-47.147 0-85.461 38.315-85.461 85.461 0 46.976 38.315 85.205 85.461 85.205 47.019 0 85.205-38.229 85.205-85.205 0-47.104-38.229-85.461-85.205-85.461zM512.171 476.501c-15.915 0-31.061-2.901-45.696-6.997l42.624 173.44-0.299 0.171c0.341 1.28 0.896 2.517 1.195 3.84 0.725 0 1.408 0.213 2.176 0.213s1.451-0.213 2.176-0.213c0.299-1.323 0.896-2.56 1.195-3.84l-0.299-0.171 42.624-173.44c-14.635 4.096-29.781 6.997-45.696 6.997zM810.709 248.832c-47.019 0-85.205 38.315-85.205 85.461 0 46.976 38.229 85.205 85.205 85.205 47.104 0 85.461-38.229 85.461-85.205 0-47.104-38.357-85.461-85.461-85.461z" />
<glyph unicode="&#xe64f;" d="M298.667 448c0 10.923 4.181 21.845 12.501 30.165l341.333 341.333c16.683 16.683 43.648 16.683 60.331 0s16.683-43.648 0-60.331l-311.168-311.168 311.168-311.168c16.683-16.683 16.683-43.648 0-60.331s-43.648-16.683-60.331 0l-341.333 341.333c-8.32 8.32-12.501 19.243-12.501 30.165z" />
<glyph unicode="&#xe650;" d="M765.269 335.019c-6.229 16.597-22.144 27.648-39.936 27.648h-426.667c-17.792 0-33.707-11.051-39.979-27.648l-128-341.333c-4.907-13.141-3.072-27.776 4.864-39.296 8.021-11.52 21.12-18.389 35.115-18.389h682.667c13.995 0 27.093 6.869 35.072 18.389 7.979 11.477 9.771 26.155 4.864 39.296l-128 341.333zM232.235 21.333l96 256h367.488l96-256h-559.488zM981.333 618.667h-213.333v298.667c0 23.595-19.072 42.667-42.667 42.667h-426.667c-23.595 0-42.667-19.072-42.667-42.667v-298.667h-213.333c-23.595 0-42.667-19.072-42.667-42.667v-298.667c0-23.595 19.072-42.667 42.667-42.667h132.821l43.264 115.328c12.459 33.109 44.587 55.339 79.915 55.339h426.667c35.328 0 67.456-22.229 79.915-55.339l43.264-115.328h132.821c23.595 0 42.667 19.072 42.667 42.667v298.667c0 23.595-19.072 42.667-42.667 42.667zM128 490.667c-23.552 0-42.667 19.115-42.667 42.667s19.115 42.667 42.667 42.667c23.552 0 42.667-19.115 42.667-42.667s-19.115-42.667-42.667-42.667zM341.333 874.667h341.333v-256h-341.333v256z" />
<glyph unicode="&#xe651;" d="M648.064 404.565c-33.707-19.456-54.869-58.923-54.869-75.477 0-12.587-9.685-27.435-22.827-27.435h-137.216c-12.587 0-20.565 19.413-20.565 32v25.771c0 69.163 68.608 128.597 118.869 151.467 44.032 20.011 62.336 38.869 62.336 75.477 0 32-41.771 60.587-88.064 60.587-25.685 0-49.109-8.021-61.696-16.597-13.739-9.685-27.435-23.424-61.184-65.749-4.565-5.675-11.392-9.131-17.707-9.131-5.12 0-9.685 1.707-14.251 4.565l-93.781 71.467c-9.728 7.424-11.989 20.011-5.76 30.293 61.739 102.272 148.608 152.021 265.259 152.021 122.325 0 259.499-97.749 259.499-228.651 0-108.587-73.728-150.357-128.043-180.608zM595.499 105.045c0-12.587-10.283-22.869-22.869-22.869h-137.173c-12.587 0-22.869 10.283-22.869 22.869v137.173c0 12.587 10.283 22.869 22.869 22.869h137.173c12.587 0 22.869-10.283 22.869-22.869v-137.173z" />
<glyph unicode="&#xe652;" d="M512 9.003c-242.389 0-438.997 196.608-438.997 438.997s196.608 438.997 438.997 438.997c242.389 0 438.997-196.608 438.997-438.997s-196.608-438.997-438.997-438.997zM523.435 740.651c-93.184 0-162.901-40.021-212.096-121.728-5.12-8.021-2.859-18.304 4.565-24.021l75.52-57.173c2.816-2.304 6.827-3.413 10.837-3.413 5.163 0 10.837 2.261 14.293 6.827 26.88 34.304 38.315 44.587 49.152 52.565 9.728 6.869 28.544 13.739 49.109 13.739 36.565 0 70.315-23.467 70.315-48.64 0-29.696-15.403-44.587-50.304-60.587-40.619-18.304-96.043-65.707-96.043-121.173v-20.608c0-10.283 8.021-18.304 18.304-18.304h109.739c10.283 0 18.304 8.021 18.304 18.304 0 13.184 16.597 41.173 43.435 56.576 43.477 24.576 102.912 57.771 102.912 144.64 0 104.704-109.739 182.997-208.043 182.997zM585.173 283.392c0 10.283-8.021 18.304-18.304 18.304h-109.739c-10.283 0-18.304-8.021-18.304-18.304v-109.739c0-10.283 8.021-18.304 18.304-18.304h109.739c10.283 0 18.304 8.021 18.304 18.304v109.739z" />
<glyph unicode="&#xe653;" d="M85.333 448c0 113.963 44.373 221.099 124.971 301.696s187.776 124.971 301.696 124.971c99.584 0 193.963-33.92 269.995-96.256l-73.813-73.856c-12.203-12.203-15.915-30.592-9.259-46.549 6.571-15.957 22.187-26.325 39.424-26.325l211.371-0.043c11.307 0 22.144 4.437 30.123 12.501 8.021 7.979 12.501 18.816 12.501 30.165l0.043 211.285c0.043 17.237-10.368 32.853-26.368 39.424-15.915 6.613-34.304 2.944-46.507-9.259l-77.099-77.099c-92.373 78.379-208.043 121.344-330.411 121.344-136.704 0-265.301-53.248-362.027-149.973s-149.973-225.28-149.973-362.027c0-23.552 19.072-42.667 42.667-42.667s42.667 19.115 42.667 42.667zM981.333 490.667c-23.595 0-42.667-19.115-42.667-42.667 0-113.963-44.373-221.099-124.971-301.696s-187.776-124.971-301.696-124.971c-99.584 0-194.048 33.92-270.080 96.341l73.728 73.728c12.203 12.203 15.915 30.592 9.259 46.549-6.571 16-22.144 26.325-39.424 26.325l-211.328 0.043c-11.349 0-22.187-4.437-30.165-12.501-8.021-7.979-12.501-18.816-12.501-30.208l-0.043-211.285c-0.043-17.237 10.368-32.853 26.368-39.424 15.915-6.656 34.304-2.944 46.507 9.259l77.227 77.184c92.331-78.379 208.043-121.344 330.453-121.344 136.704 0 265.301 53.248 362.027 149.973s149.973 225.28 149.973 362.027c0 23.552-19.072 42.667-42.667 42.667z" />
<glyph unicode="&#xe654;" d="M1006.72 336.683c-56.747-235.989-251.349-400.683-497.451-400.683-129.963 0-256 51.328-350.677 141.312l-85.931-85.973c-7.936-8.021-18.603-12.672-29.995-12.672-23.339 0-42.667 19.328-42.667 42.667v298.667c0 23.339 19.328 42.667 42.667 42.667h298.667c23.339 0 42.667-19.328 42.667-42.667 0-11.349-4.651-22.016-12.757-29.995l-91.264-91.349c62.72-58.667 146.005-91.989 232.021-91.989 118.656 0 228.693 61.355 290.56 162.645 16.171 25.984 24.149 51.371 35.371 77.995 3.328 9.387 10.027 15.36 20.053 15.36h128c11.947 0 21.291-9.984 21.291-21.333 0-1.323 0-3.371-0.555-4.651zM1024 576c0-23.339-19.328-42.667-42.667-42.667h-298.667c-23.339 0-42.667 19.328-42.667 42.667 0 11.349 4.651 22.016 12.757 29.995l91.904 92.032c-63.36 58.624-146.645 91.307-232.661 91.307-118.656 0-228.693-61.355-290.603-162.645-16.128-25.984-24.107-51.371-35.371-77.995-3.328-9.387-10.027-15.36-20.011-15.36h-132.693c-11.947 0-21.291 9.984-21.291 21.333 0 1.323 0 3.371 0 4.651 57.344 236.672 253.952 400.683 499.968 400.683 130.603 0 257.963-52.011 352.64-141.312l86.656 85.973c7.979 8.021 18.645 12.672 30.037 12.672 23.339 0 42.667-19.328 42.667-42.667v-298.667z" />
<glyph unicode="&#xe655;" d="M853.248 801.963v-787.925c0-9.173-7.467-16.597-16.597-16.597h-649.301c-9.173 0-16.597 7.424-16.597 16.597v867.968c0 9.173 7.467 16.597 16.597 16.597h569.173l-61.184 61.184h-507.989c-42.88 0-77.781-34.901-77.781-77.781v-867.968c0-42.88 34.901-77.781 77.781-77.781h649.259c42.88 0 77.781 34.901 77.781 77.781v726.699l-61.141 61.227zM695.699 959.634l218.036-218.036-43.263-43.263-218.036 218.036 43.263 43.263zM621.867 959.787h61.184v-227.883h-61.184v227.883zM621.867 740.907h291.584v-61.184h-246.016c-25.173 0-45.568 20.395-45.568 45.568v15.616zM512 407.253c53.035 0 96 90.965 96 144s-42.965 96-96 96c-53.035 0-96-42.965-96-96s42.965-144 96-144zM728.021 339.755l-135.040 65.877c-21.76-24.32-49.067-41.045-81.024-41.045s-59.264 16.725-81.024 41.045l-135.040-65.877c-32.043-20.992-48.085-65.493-35.84-99.413l6.272-17.408c58.496-34.603 117.632-53.12 199.808-63.787 26.496-3.456 65.152-3.456 91.648 0 82.176 10.667 141.312 29.184 199.808 63.787l6.272 17.408c12.245 33.92-3.797 78.421-35.84 99.413z" />
<glyph unicode="&#xe656;" d="M987.733 63.872c0-30.293-24.576-54.869-54.912-54.869h-841.387c-30.251 0-54.827 24.576-54.827 54.869v182.912c0 30.293 24.576 54.869 54.827 54.869h265.813l77.184-77.739c21.163-20.565 48.597-32 77.739-32 29.184 0 56.576 11.435 77.739 32l77.739 77.739h265.173c30.336 0 54.912-24.576 54.912-54.869v-182.912zM793.899 532.053l-256.085-256.085c-6.827-7.467-16.512-10.88-25.685-10.88s-18.901 3.413-25.728 10.88l-256.085 256.085c-10.837 10.283-13.739 26.283-7.979 39.979 5.76 13.141 18.816 22.315 33.749 22.315h146.347v256.085c0 20.011 16.597 36.565 36.608 36.565h146.347c20.011 0 36.565-16.597 36.565-36.565v-256.085h146.347c14.848 0 27.989-9.173 33.664-22.315 5.717-13.696 2.859-29.696-8.064-39.979z" />
<glyph unicode="&#xe657;" d="M1011.541 69.248l-265.813 266.027c40.917 63.36 64.939 138.581 64.939 219.392 0 223.488-181.845 405.333-405.333 405.333s-405.333-181.845-405.333-405.333 181.888-405.333 405.333-405.333c80.939 0 156.288 24.107 219.648 65.195l265.856-266.027c8.363-8.32 19.243-12.501 30.165-12.501s21.803 4.181 30.165 12.501l60.331 60.373c16.683 16.683 16.683 43.691 0.043 60.373zM405.333 234.667c-176.384 0-320 143.531-320 320 0 176.427 143.616 320 320 320 176.512 0 320-143.573 320-320 0-176.469-143.488-320-320-320z" />
<glyph unicode="&#xe658;" d="M1023.445 917.163l-146.304-877.739c-1.707-10.837-8.576-19.968-18.261-25.685-5.163-2.859-11.477-4.565-17.749-4.565-4.565 0-9.131 1.109-13.653 2.859l-258.859 105.728-138.283-168.576c-6.827-8.619-17.152-13.184-27.989-13.184-4.011 0-8.576 0.597-12.587 2.304-14.293 5.12-23.979 18.859-23.979 34.261v199.424l493.696 605.141-610.859-528.555-225.707 92.587c-13.184 5.12-21.717 17.109-22.869 31.403-0.597 13.696 6.272 26.88 18.304 33.749l950.827 548.565c5.717 3.413 11.989 5.12 18.304 5.12 7.424 0 14.848-2.304 20.565-6.272 11.989-8.619 17.707-22.315 15.403-36.565z" />
<glyph unicode="&#xe659;" d="M666.411 41.003c-199.552 0-361.899 162.347-361.899 361.899s162.347 361.899 361.899 361.899c199.552 0 361.899-162.347 361.899-361.899s-162.347-361.899-361.899-361.899zM666.411 674.347c-149.675 0-271.445-121.771-271.445-271.445s121.771-271.445 271.445-271.445c149.675 0 271.445 121.771 271.445 271.445s-121.771 271.445-271.445 271.445zM666.155 315.819c0 0.256-0.427 1.792-1.451 5.76-1.109 3.925-2.731 9.685-5.376 16.853-2.773 7.168-6.272 15.701-10.965 25.045-4.736 9.344-11.051 19.243-18.133 29.568-7.125 10.283-16.171 20.437-26.155 30.208-9.771 10.027-21.632 18.944-33.835 27.691-6.4 4.139-12.629 8.448-19.584 12.075-6.613 4.011-13.824 7.424-20.907 10.965-7.125 3.499-14.805 6.315-22.144 9.515-7.808 2.645-15.189 5.76-23.125 8.107-15.744 4.779-31.659 9.173-47.787 12.373-8.192 1.365-15.957 3.371-24.064 4.48-8.064 1.195-16 2.347-23.808 3.499-15.957 1.493-31.104 3.541-45.909 4.139-14.592 1.195-28.757 1.237-41.643 1.792-12.843 0.683-25.003 0-35.541 0.085-5.333 0-10.24-0.256-14.848 0.384-4.608 0.597-8.789 2.091-12.587 4.096s-7.211 4.651-10.155 7.253c-2.987 2.645-5.504 5.931-7.595 8.235-2.176 2.944-3.797 4.949-4.864 6.997-1.109 1.792-1.664 2.731-1.664 2.731l-2.091 3.499c-16.64 27.819-14.677 61.653 2.091 86.997 0 0 0.597 0.896 1.792 2.688 1.195 1.963 2.944 3.925 5.248 6.784 2.304 2.219 5.163 5.419 8.576 7.936 3.371 2.517 7.296 4.992 11.691 6.827 4.395 1.92 9.259 3.243 14.549 3.627 5.248 0.64 11.008-0.64 17.067-1.152 12.203-1.579 25.856-2.56 40.875-5.12 15.019-2.261 31.232-4.693 48.384-8.619 17.109-3.328 35.243-8.064 53.76-13.227 18.517-5.845 37.632-11.776 56.704-19.755 19.029-7.765 38.187-16.683 56.661-27.136 9.301-5.035 18.261-11.093 27.221-16.555 8.789-6.144 17.451-12.203 25.728-18.816 16.597-13.099 31.787-27.648 45.141-42.88 13.141-15.445 24.704-31.275 33.621-47.488 8.832-16.256 15.915-32.085 20.736-47.232 9.899-30.208 11.989-56.363 11.733-74.283-0.213-9.045-0.811-16.085-1.451-20.949-0.683-4.821-1.28-7.979-1.28-7.68-0.213-6.784-5.888-12.16-12.672-11.947-6.784 0.171-12.16 5.845-11.947 12.629zM198.485 420.693l-166.016 146.304c-13.696 12.075-13.696 33.408 0 45.483l166.016 146.304c19.584 17.28 50.389 3.371 50.389-22.741v-292.608c0-26.069-30.805-39.979-50.389-22.741z" />
<glyph unicode="&#xe65a;" d="M779.776 215.723c0 0 0 0 0 0-9.813 0-14.677 0.469-27.691 0.469l-0.939-76.8c0-23.211-18.859-42.027-42.027-42.027h-595.2c-23.168 0-42.027 18.859-42.027 42.027v604.032c0 18.219 14.848 33.067 33.067 33.067h474.709v25.643c0 16.384 4.181 32 11.264 46.251h-485.931c-57.899 0.043-105.003-47.019-105.003-104.96v-604.075c0-62.848 51.115-113.963 113.92-113.963h595.115c62.848 0 113.963 51.115 113.963 113.963v86.016c-13.44-6.144-28.032-9.643-43.221-9.643zM1013.803 618.027l-209.109 209.067c-10.069 10.069-25.216 13.056-38.357 7.637-4.352-1.792-8.235-4.437-11.435-7.637-6.443-6.485-10.283-15.36-10.283-24.875v-87.125c-22.827-2.645-53.589-6.229-90.411-10.496-39.979-4.949-87.040-10.923-138.667-20.053-25.429-4.011-52.736-9.899-80.427-16.384-13.483-2.731-28.245-7.723-42.411-11.861-14.165-3.968-28.544-8.704-43.435-15.317-14.635-6.101-28.971-11.52-43.648-20.864-14.507-8.277-28.629-16.427-41.685-28.629l-19.2-16.811c-5.675-6.528-10.923-13.355-16.128-20.011-4.949-6.827-10.709-13.056-14.421-20.224-3.584-7.168-7.125-14.293-10.667-21.376-7.723-13.995-11.179-28.032-14.933-41.643-1.835-6.784-3.84-13.483-5.291-20.011-0.853-6.443-1.707-12.843-2.56-19.115-4.181-25.216-4.011-47.872-4.395-68.736-0.597-20.864 1.579-39.637 2.133-56.235 0.597-16.811 2.688-30.251 3.755-41.813 2.475-22.912 3.883-36.011 3.883-36.011 0.853-7.851 6.912-14.507 15.104-15.701 9.685-1.408 18.688 5.333 20.096 15.019 0 0 1.877 13.013 5.205 35.84 1.792 11.264 3.243 25.6 6.613 40.533 3.413 15.104 5.675 32.384 10.923 50.304 4.949 17.963 9.899 37.547 18.133 55.637 1.835 4.608 3.712 9.301 5.589 14.037l7.381 12.587c4.864 8.363 9.387 17.152 16.043 23.211l8.789 10.112c2.901 3.371 7.083 5.205 10.368 7.893l10.069 7.552 12.203 5.248c7.083 4.181 16.811 6.357 26.069 8.704 8.405 3.029 19.499 3.968 29.909 5.333 9.899 1.792 21.077 2.432 32.683 2.56 11.477 0.256 21.973 1.28 34.176 0.512 23.424-0.555 46.507-1.408 70.016-3.712 46.123-3.541 90.624-9.045 128.981-14.037 36.949-5.035 67.797-9.259 90.112-12.331v-94.933c0-14.251 8.576-27.093 21.717-32.512s28.288-2.432 38.357 7.637l209.109 209.237c13.781 13.781 13.781 36.053 0.043 49.792z" />
<glyph unicode="&#xe65b;" d="M853.333 234.667c-10.923 0-21.845 4.181-30.165 12.501l-311.168 311.168-311.168-311.168c-16.683-16.683-43.648-16.683-60.331 0s-16.683 43.648 0 60.331l341.333 341.333c16.683 16.683 43.648 16.683 60.331 0l341.333-341.333c16.683-16.683 16.683-43.648 0-60.331-8.32-8.32-19.243-12.501-30.165-12.501z" />
<glyph unicode="&#xe65c;" d="M512 234.667c-10.923 0-21.845 4.181-30.165 12.501l-341.333 341.333c-16.683 16.683-16.683 43.648 0 60.331s43.648 16.683 60.331 0l311.168-311.168 311.168 311.168c16.683 16.683 43.648 16.683 60.331 0s16.683-43.648 0-60.331l-341.333-341.333c-8.32-8.32-19.243-12.501-30.165-12.501z" />
<glyph unicode="&#xe65d;" d="M853.461 533.333c-10.923 0-21.845 4.181-30.165 12.501l-311.168 311.168-311.168-311.168c-16.683-16.683-43.648-16.683-60.331 0s-16.683 43.648 0 60.331l341.333 341.333c16.683 16.683 43.648 16.683 60.331 0l341.333-341.333c16.683-16.683 16.683-43.648 0-60.331-8.32-8.32-19.243-12.501-30.165-12.501zM512.128-64c-10.923 0-21.845 4.181-30.165 12.501l-341.333 341.333c-16.683 16.683-16.683 43.648 0 60.331s43.648 16.683 60.331 0l311.168-311.168 311.168 311.168c16.683 16.683 43.648 16.683 60.331 0s16.683-43.648 0-60.331l-341.333-341.333c-8.32-8.32-19.243-12.501-30.165-12.501z" />
<glyph unicode="&#xe65e;" d="M972.928 522.581l-207.488-202.325 49.152-285.781c0.512-4.011 0.512-7.467 0.512-11.435 0-15.403-6.827-28.587-23.424-28.587-8.021 0-16 2.859-22.827 6.869l-256.683 134.912-256.683-134.955c-7.424-4.011-14.848-6.869-22.827-6.869-16.597 0-23.979 13.739-23.979 28.587 0 4.011 0.597 7.467 1.067 11.435l49.152 285.781-208.043 202.325c-6.869 7.509-14.293 17.195-14.293 27.52 0 17.152 17.749 23.979 32 26.283l287.019 41.728 128.597 260.139c5.163 10.837 14.848 23.424 27.989 23.424 13.184 0 22.827-12.587 27.989-23.424l128.597-260.139 286.976-41.728c13.739-2.304 32-9.131 32-26.283 0-10.325-7.381-20.011-14.805-27.477zM861.44 515.755l-241.237 35.413-107.989 218.368-108.032-218.368-241.237-35.413 174.933-169.771-41.771-240.64 216.064 113.749 215.509-113.749-41.173 240.64 174.933 169.771z" />
<glyph unicode="&#xe65f;" d="M972.928 522.581l-207.488-202.325 49.109-285.781c0.597-4.011 0.597-7.467 0.597-11.435 0-14.848-6.869-28.587-23.467-28.587-8.021 0-16 2.859-22.827 6.869l-256.683 134.912-256.683-134.955c-7.424-4.011-14.848-6.869-22.827-6.869-16.597 0-23.979 13.739-23.979 28.587 0 4.011 0.555 7.467 1.109 11.435l49.109 285.781-208.043 202.325c-6.869 7.509-14.293 17.195-14.293 27.52 0 17.152 17.749 23.979 32 26.283l286.976 41.728 128.64 260.139c5.163 10.837 14.848 23.424 27.989 23.424 13.184 0 22.827-12.587 27.989-23.424l128.64-260.139 286.933-41.728c13.696-2.304 32-9.131 32-26.283 0-10.325-7.381-20.011-14.805-27.477z" />
<glyph unicode="&#xe660;" d="M602.496 448l189.397 189.397c25.003 24.96 25.003 65.536 0 90.496-25.003 25.003-65.493 25.003-90.496 0l-189.397-189.397-189.44 189.44c-25.003 25.003-65.493 25.003-90.496 0-25.003-24.96-25.003-65.536 0-90.496l189.44-189.44-189.397-189.44c-25.003-24.96-25.003-65.536 0-90.496 12.459-12.501 28.843-18.731 45.227-18.731s32.768 6.229 45.227 18.773l189.44 189.397 189.397-189.397c12.501-12.544 28.885-18.773 45.269-18.773s32.768 6.229 45.227 18.773c25.003 24.96 25.003 65.536 0 90.496l-189.397 189.397z" />
<glyph unicode="&#xe661;" d="M228.736-0.427c-13.099-13.184-32-21.163-51.413-21.163s-38.229 8.021-52.011 21.163l-60.587 61.739c-13.739 13.141-21.76 32-21.76 51.413s8.021 38.272 21.76 52.011l389.248 389.291c29.739-74.88 89.728-134.912 164.651-164.608l-389.888-389.845zM213.931 185.899c-20.011 0-36.565-16.597-36.565-36.565 0-20.011 16.597-36.565 36.565-36.565 20.011 0 36.565 16.597 36.565 36.565 0 20.011-16.597 36.565-36.565 36.565zM967.893 577.493c-36.096-101.76-133.76-172.075-241.835-172.075-141.184 0-256.085 114.901-256.085 256.085s114.901 256.085 256.085 256.085c41.771 0 96-12.587 130.901-36.011 5.76-4.011 9.173-9.173 9.173-16 0-6.315-4.011-12.587-9.173-16l-167.467-96.597v-128.043l110.336-61.184c18.816 10.88 151.509 94.336 162.901 94.336 11.435 0 18.261-8.576 18.261-20.011 0-18.859-6.827-42.325-13.099-60.587z" />
<glyph unicode="&#xe662;" d="M869.845 631.509c0.555-8.021 0.555-16 0.555-24.021 0-244.096-185.728-525.312-525.312-525.312-104.576 0-201.771 30.336-283.477 82.901 14.891-1.749 29.184-2.347 44.587-2.347 86.315 0 165.76 29.141 229.248 78.933-81.152 1.749-149.205 54.912-172.672 128.085 11.435-1.749 22.869-2.901 34.859-2.901 16.597 0 33.152 2.347 48.64 6.315-84.608 17.067-148.096 91.435-148.096 181.163 0 0.597 0 1.749 0 2.347 24.576-13.739 53.163-22.315 83.456-23.509-49.707 33.152-82.304 89.771-82.304 153.771 0 34.347 9.131 65.749 25.131 93.269 90.88-112.085 227.541-185.259 380.715-193.237-2.816 13.739-4.565 27.989-4.565 42.325 0 101.76 82.347 184.576 184.661 184.576 53.163 0 101.163-22.229 134.827-58.24 41.771 8.021 81.749 23.424 117.248 44.587-13.739-42.923-42.923-78.933-81.152-101.76 37.077 4.011 73.173 14.251 106.24 28.587-25.088-36.608-56.619-69.205-92.587-95.531z" />
<glyph unicode="&#xe663;" d="M877.995 45.568h-621.909c-141.184 0-256.085 114.901-256.085 256.085 0 99.456 57.771 189.781 147.499 231.509-0.597 8.576-1.152 16.597-1.152 24.576 0 161.749 130.901 292.651 292.651 292.651 118.912 0 225.835-72.021 271.019-181.803 26.24 22.869 59.989 35.456 94.848 35.456 80.597 0 146.347-65.749 146.347-146.347 0-27.989-8.021-55.467-23.424-78.891 99.499-23.467 169.771-112.043 169.771-213.803-0.043-121.088-98.389-219.435-219.563-219.435zM726.571 442.88l-201.259 201.216c-3.413 3.413-8.021 5.12-13.184 5.12-4.565 0-9.685-1.707-13.184-5.12l-200.576-200.661c-3.413-4.011-5.76-8.576-5.76-13.696 0-10.283 8.021-18.304 18.347-18.304h128v-201.216c0-9.728 8.576-18.304 18.347-18.304h109.739c9.685 0 18.261 8.576 18.261 18.304v201.216h128.085c10.24 0 18.261 8.576 18.261 18.304 0 4.565-1.664 9.685-5.077 13.141z" horiz-adv-x="1098" />
<glyph unicode="&#xe664;" d="M918.912 415.787l-4.437 2.901-4.779 2.347-201.344 98.347c30.165 57.429 49.067 123.477 49.067 177.579 0 135.339-110.080 245.419-245.419 245.419s-245.419-110.080-245.419-245.419c0-54.101 18.901-120.149 49.067-177.579l-206.080-100.693-4.48-2.901c-86.016-56.277-126.976-173.227-93.312-266.155l10.283-28.757 10.368-28.971 26.453-15.659c106.283-62.976 215.637-98.133 365.696-117.675 25.301-3.243 55.509-4.992 87.381-4.992 31.829 0 62.080 1.749 87.296 4.992 150.144 19.541 259.499 54.699 365.781 117.675l26.453 15.659 10.368 28.971 10.368 29.013c33.664 92.672-7.296 209.621-93.312 265.899zM512 857.003c88.405 0 160.043-71.637 160.043-160.043s-71.637-240.085-160.043-240.085c-88.405 0-160.043 151.68-160.043 240.085s71.637 160.043 160.043 160.043zM931.925 178.688l-10.368-28.971c-97.493-57.771-196.139-88.619-333.227-106.453-22.101-2.816-49.195-4.309-76.331-4.309s-54.272 1.451-76.373 4.309c-137.045 17.835-235.691 48.683-333.184 106.453l-10.368 28.971c-20.48 56.491 6.315 130.731 59.691 165.675l211.456 103.253c43.136-49.365 94.507-76.075 148.736-76.075s105.643 26.709 148.736 76.075l211.456-103.253c53.461-34.987 80.256-109.184 59.776-165.675z" />
<glyph unicode="&#xe665;" d="M512 458.667c106.027 0 192 181.973 192 288s-85.973 192-192 192c-106.027 0-192-85.973-192-192s85.973-288 192-288zM944.085 323.669l-270.037 131.755c-43.52-48.683-98.133-82.091-162.048-82.091s-118.528 33.408-162.048 82.091l-270.037-131.755c-64.085-41.941-96.171-130.944-71.723-198.784l12.544-34.816c116.992-69.248 235.264-106.24 399.573-127.573 52.992-6.869 130.347-6.869 183.296 0 164.395 21.333 282.624 58.325 399.616 127.573l12.544 34.816c24.491 67.84-7.595 156.8-71.68 198.784z" />
<glyph unicode="&#xe666;" d="M0 226.133v576c0 21.333 8.533 42.667 25.6 59.733s34.133 25.6 59.733 25.6h849.067c21.333 0 42.667-8.533 59.733-25.6s25.6-38.4 25.6-59.733v-576c0-21.333-8.533-42.667-25.6-59.733s-38.4-25.6-59.733-25.6h-290.133c0-12.8 4.267-25.6 8.533-42.667 4.267-12.8 12.8-25.6 17.067-38.4s8.533-17.067 8.533-21.333c0-8.533-4.267-17.067-8.533-25.6-8.533-8.533-12.8-8.533-25.6-8.533h-273.067c-8.533 0-17.067 4.267-25.6 8.533s-8.533 12.8-8.533 25.6c0 4.267 4.267 12.8 8.533 21.333s12.8 21.333 17.067 38.4 8.533 29.867 8.533 42.667h-285.867c-21.333 0-42.667 8.533-59.733 25.6s-25.6 34.133-25.6 59.733zM68.267 358.4c0-4.267 0-8.533 4.267-12.8s8.533-4.267 12.8-4.267h849.067c4.267 0 8.533 0 12.8 4.267s4.267 8.533 4.267 12.8v443.733c0 4.267 0 8.533-4.267 12.8s-8.533 4.267-17.067 4.267h-844.8c-4.267 0-8.533 0-12.8-4.267s-4.267-8.533-4.267-12.8v-443.733z" />
<glyph unicode="&#xe667;" d="M0 520.533v221.867c0 17.067 8.533 34.133 21.333 46.933s29.867 21.333 46.933 21.333h226.133c17.067 0 38.4-4.267 64-12.8 21.333-8.533 42.667-21.333 55.467-34.133l388.267-388.267c12.8-12.8 21.333-29.867 21.333-51.2 0-17.067-8.533-34.133-21.333-46.933l-264.533-264.533c-12.8-12.8-29.867-21.333-51.2-21.333-17.067 0-34.133 8.533-46.933 21.333l-388.267 388.267c-12.8 12.8-25.6 29.867-34.133 55.467-12.8 21.333-17.067 42.667-17.067 64zM123.733 691.2c-12.8-17.067-21.333-29.867-21.333-51.2s8.533-34.133 21.333-46.933c12.8-17.067 29.867-21.333 51.2-21.333s34.133 4.267 46.933 21.333c12.8 12.8 21.333 29.867 21.333 46.933s-8.533 34.133-21.333 51.2c-12.8 12.8-29.867 17.067-46.933 17.067s-38.4-4.267-51.2-17.067zM379.733 814.933h119.467c17.067 0 38.4-4.267 64-12.8s42.667-21.333 55.467-34.133l388.267-388.267c12.8-12.8 21.333-29.867 21.333-51.2 0-17.067-8.533-34.133-21.333-46.933l-264.533-264.533c-12.8-12.8-29.867-21.333-51.2-21.333-12.8 0-25.6 4.267-29.867 8.533s-17.067 12.8-29.867 25.6l256 256c12.8 12.8 21.333 29.867 21.333 46.933s-8.533 34.133-21.333 51.2l-388.267 388.267c-12.8 4.267-29.867 17.067-55.467 25.6s-42.667 17.067-64 17.067z" />
<glyph unicode="&#xe668;" d="M934.4 721.067l-418.133 238.933-413.867-238.933 418.133-243.2 413.867 243.2zM968.533 669.867l-413.867-243.2v-477.867l418.133 238.933-4.267 482.133zM482.133 426.667l-413.867 243.2-4.267-482.133 418.133-238.933v477.867z" />
<glyph unicode="&#xe669;" d="M674.133 106.667l192 204.8-140.8 145.067-17.067 17.067-196.267-213.333c-4.267-4.267-4.267-8.533-8.533-8.533-51.2-51.2-136.533-51.2-187.733 0s-51.2 136.533 0 187.733c4.267 4.267 8.533 8.533 8.533 8.533v0l213.333 196.267-17.067 17.067-149.333 145.067-209.067-196.267c-12.8-8.533-21.333-17.067-29.867-25.6s-17.067-17.067-25.6-29.867l-4.267-4.267c-110.933-140.8-102.4-349.867 29.867-477.867 132.267-132.267 337.067-140.8 477.867-29.867v0 0c12.8 8.533 21.333 17.067 34.133 29.867 12.8 8.533 21.333 21.333 29.867 34.133zM652.8 819.2l-106.667 106.667c-12.8 12.8-38.4 12.8-51.2 0l-64-64 157.867-157.867 64 64c12.8 12.8 12.8 38.4 0 51.2zM989.867 482.133l-106.667 106.667c-12.8 12.8-38.4 12.8-51.2 0l-64-64 162.133-162.133 64 64c8.533 17.067 8.533 42.667-4.267 55.467z" />
<glyph unicode="&#xe66a;" d="M1006.933 76.8l-264.533 264.533c42.667 64 64 136.533 64 217.6 4.267 221.867-179.2 401.067-401.067 401.067s-401.067-179.2-401.067-401.067 179.2-401.067 401.067-401.067c81.067 0 153.6 25.6 217.6 64l264.533-264.533c8.533-8.533 17.067-12.8 29.867-12.8s21.333 4.267 29.867 12.8l59.733 59.733c17.067 17.067 17.067 42.667 0 59.733zM405.333 238.933c-174.933 0-315.733 140.8-315.733 315.733 0 179.2 140.8 320 315.733 320s320-140.8 320-315.733c0-174.933-145.067-320-320-320zM217.6 430.933c-12.8 12.8-12.8 34.133 0 46.933l76.8 81.067v4.267l-76.8 85.333c-12.8 12.8-12.8 34.133 0 46.933l17.067 17.067c12.8 12.8 34.133 12.8 46.933 0l115.2-123.733c12.8-12.8 12.8-34.133 0-46.933l-115.2-123.733c-12.8-12.8-34.133-12.8-46.933 0l-17.067 12.8zM418.133 430.933c-12.8 12.8-12.8 34.133 0 46.933l76.8 81.067v4.267l-76.8 85.333c-12.8 12.8-12.8 34.133 4.267 46.933l17.067 17.067c12.8 12.8 34.133 12.8 46.933 0l115.2-123.733c12.8-12.8 12.8-34.133 0-46.933l-115.2-123.733c-12.8-12.8-34.133-12.8-46.933 0l-21.333 12.8z" />
</font>
</defs>
</svg>
